<?xml version="1.0" encoding="UTF-8"?>
<svg width="18px" height="20px" viewBox="0 0 18 20" version="1.1" xmlns="http://www.w3.org/2000/svg" xmlns:xlink="http://www.w3.org/1999/xlink">
    <!-- Generator: Sketch 52.6 (67491) - http://www.bohemiancoding.com/sketch -->
    <title>attachment</title>
    <desc>Created with Sketch.</desc>
    <g id="Version2" stroke="none" stroke-width="1" fill="none" fill-rule="evenodd">
        <g id="messaging" transform="translate(-750.000000, -711.000000)" fill="#CCCCCC">
            <g id="attachment" transform="translate(750.000000, 711.000000)">
                <path d="M6.8,19.9878788 C5.08484848,19.9878788 3.36666667,19.3363636 2.06060606,18.0272727 C-0.554545455,15.4151515 -0.554545455,11.1606061 2.06060606,8.54848485 L9.06969697,1.53939394 C10.9787879,-0.372727273 14.0909091,-0.372727273 16.0030303,1.53939394 C17.9151515,3.45151515 17.9151515,6.56363636 16.0030303,8.47575758 L9.33333333,15.1454545 C8.02727273,16.4515152 5.9030303,16.4515152 4.5969697,15.1454545 C3.29393939,13.8393939 3.29393939,11.7151515 4.5969697,10.4090909 L10.230303,4.77878788 C10.7,4.30606061 11.4636364,4.30606061 11.9333333,4.77878788 C12.4030303,5.24848485 12.4030303,6.01212121 11.9333333,6.48181818 L6.3030303,12.1121212 C5.93636364,12.4787879 5.93636364,13.0757576 6.3030303,13.4424242 C6.65757576,13.7969697 7.27575758,13.7969697 7.63030303,13.4424242 L14.3,6.76969697 C15.2727273,5.8 15.2727273,4.21515152 14.3,3.24242424 C13.830303,2.77272727 13.2030303,2.51212121 12.5363636,2.51212121 C11.869697,2.51212121 11.2424242,2.77272727 10.7727273,3.24242424 L3.76363636,10.2515152 C2.08787879,11.9272727 2.08787879,14.6515152 3.76363636,16.3242424 C5.43939394,18 8.16363636,18 9.83636364,16.3242424 L15.1636364,10.9969697 C15.6333333,10.5272727 16.3969697,10.5272727 16.8666667,10.9969697 C17.3393939,11.4666667 17.3393939,12.230303 16.8666667,12.7 L11.5393939,18.0272727 C10.2333333,19.3363636 8.51515152,19.9878788 6.8,19.9878788" id="Fill-1"></path>
            </g>
        </g>
    </g>
</svg>