<?xml version="1.0" encoding="UTF-8"?>
<svg width="20px" height="20px" viewBox="0 0 20 20" version="1.1" xmlns="http://www.w3.org/2000/svg" xmlns:xlink="http://www.w3.org/1999/xlink">
    <!-- Generator: Sketch 52.6 (67491) - http://www.bohemiancoding.com/sketch -->
    <title>white_tick</title>
    <desc>Created with Sketch.</desc>
    <g id="Version2" stroke="none" stroke-width="1" fill="none" fill-rule="evenodd">
        <g id="chat" transform="translate(-720.000000, -429.000000)">
            <g id="white_tick" transform="translate(720.000000, 429.000000)">
                <g id="Group-3-Copy-2">
                    <circle id="Oval" fill="#FFFFFF" cx="10" cy="10" r="10"></circle>
                    <path d="M9.11497817,13 C8.99482018,13 8.87466219,12.9530323 8.78395468,12.8593384 L6.13694477,10.1471664 C5.95435174,9.9596579 5.95435174,9.65587725 6.13694477,9.4684895 C6.3195378,9.28098101 6.61639872,9.28098101 6.79899175,9.4684895 L9.11497817,11.8412627 L13.7010082,7.14063137 C13.8836013,6.95312288 14.1804622,6.95312288 14.3630552,7.14063137 C14.5456483,7.32813986 14.5456483,7.63192051 14.3630552,7.819429 L9.44600166,12.8593384 C9.35411614,12.9530323 9.23395815,13 9.11497817,13" id="Fill-358" stroke="#4CE2A7" fill="#4CE2A7"></path>
                </g>
                <g id="Group-3-Copy-3" transform="translate(6.000000, 7.000000)" fill="#4CE2A7" stroke="#4CE2A7">
                    <path d="M3.11497817,6 C2.99482018,6 2.87466219,5.95303232 2.78395468,5.85933845 L0.136944772,3.14716639 C-0.0456482572,2.9596579 -0.0456482572,2.65587725 0.136944772,2.4684895 C0.319537801,2.28098101 0.616398725,2.28098101 0.798991754,2.4684895 L3.11497817,4.84126273 L7.70100825,0.140631367 C7.88360128,-0.0468771224 8.1804622,-0.0468771224 8.36305523,0.140631367 C8.54564826,0.328139857 8.54564826,0.631920513 8.36305523,0.819429003 L3.44600166,5.85933845 C3.35411614,5.95303232 3.23395815,6 3.11497817,6" id="Fill-358"></path>
                </g>
            </g>
        </g>
    </g>
</svg>