<?xml version="1.0" encoding="UTF-8"?>
<svg width="28px" height="30px" viewBox="0 0 28 30" version="1.1" xmlns="http://www.w3.org/2000/svg" xmlns:xlink="http://www.w3.org/1999/xlink">
    <!-- Generator: Sketch 52.5 (67469) - http://www.bohemiancoding.com/sketch -->
    <title>chat</title>
    <desc>Created with Sketch.</desc>
    <g id="Version2" stroke="none" stroke-width="1" fill="none" fill-rule="evenodd">
        <g id="about" transform="translate(-1205.000000, -47.000000)">
            <g id="chat" transform="translate(1205.000000, 47.000000)">
                <path d="M13.754955,3.1804 C7.90810811,3.1804 3.15531532,7.9796 3.15531532,13.878 C3.15531532,16.336 4.0036036,18.738 5.54558559,20.6412 C5.91423423,21.0992 6.00540541,21.7272 5.7754955,22.2712 L4.56648649,25.1272 L8.11027027,23.5988 C8.51459459,23.4236 8.97837838,23.4284 9.3827027,23.6128 C10.7740541,24.2516 12.2446847,24.5752 13.754955,24.5752 C19.6018018,24.5752 24.3545946,19.7764 24.3545946,13.878 C24.3545946,7.9796 19.6018018,3.1804 13.754955,3.1804 Z M1.57765766,29.7364 C1.16936937,29.7364 0.765045045,29.5756 0.463783784,29.2712 C0.00792792793,28.812 -0.122882883,28.1196 0.126846847,27.5224 L2.51711712,21.8724 C0.887927928,19.5432 0,16.7396 0,13.878 C0,6.226 6.17189189,2.27373675e-13 13.754955,2.27373675e-13 C21.338018,2.27373675e-13 27.5059459,6.226 27.5059459,13.878 C27.5059459,21.53 21.338018,27.7556 13.754955,27.7556 C12.0266667,27.7556 10.341982,27.4304 8.73261261,26.7888 L2.19603604,29.6084 C1.99783784,29.6948 1.78774775,29.7364 1.57765766,29.7364 Z" id="Fill-126" fill="#505A83"></path>
                <path d="M8.18162162,15.8252 C7.31351351,15.8252 6.60396396,15.1104 6.60396396,14.232 C6.60396396,13.3536 7.31351351,12.6388 8.18162162,12.6388 C9.05369369,12.6388 9.76324324,13.3536 9.76324324,14.232 C9.76324324,15.1104 9.05369369,15.8252 8.18162162,15.8252 Z" id="Fill-127" fill="#638EE1"></path>
                <path d="M13.754955,15.8252 C12.8828829,15.8252 12.1772973,15.1104 12.1772973,14.232 C12.1772973,13.3536 12.8828829,12.6388 13.754955,12.6388 C14.627027,12.6388 15.3326126,13.3536 15.3326126,14.232 C15.3326126,15.1104 14.627027,15.8252 13.754955,15.8252 Z" id="Fill-128" fill="#638EE1"></path>
                <path d="M19.3243243,15.8252 C18.4562162,15.8252 17.7466667,15.1104 17.7466667,14.232 C17.7466667,13.3536 18.4562162,12.6388 19.3243243,12.6388 C20.1963964,12.6388 20.9059459,13.3536 20.9059459,14.232 C20.9059459,15.1104 20.1963964,15.8252 19.3243243,15.8252 Z" id="Fill-129" fill="#638EE1"></path>
            </g>
        </g>
    </g>
</svg>