<?xml version="1.0" encoding="UTF-8"?>
<svg width="25px" height="30px" viewBox="0 0 25 30" version="1.1" xmlns="http://www.w3.org/2000/svg" xmlns:xlink="http://www.w3.org/1999/xlink">
    <!-- Generator: Sketch 52.5 (67469) - http://www.bohemiancoding.com/sketch -->
    <title>Group 4</title>
    <desc>Created with Sketch.</desc>
    <g id="Version2" stroke="none" stroke-width="1" fill="none" fill-rule="evenodd">
        <g id="about" transform="translate(-1267.000000, -47.000000)">
            <g id="Group-4" transform="translate(1267.000000, 47.000000)">
                <g id="NOtification" fill="#505A83">
                    <path d="M12.3767777,22.6329114 C12.3284596,22.6329114 12.2827634,22.6405063 12.2355689,22.6481013 C12.1883745,22.6405063 12.1426783,22.6329114 12.0939856,22.6329114 L3.60310797,22.6329114 C4.36945566,20.3544304 5.15827689,18.0607595 5.15827689,15.6075949 L5.15827689,11.6240506 C5.15827689,6.87721519 8.2659928,3.01898734 12.1314415,3.01898734 C12.1797597,3.01898734 12.2067279,3.00759494 12.2539223,3.00379747 C12.3014913,3.00759494 12.3400709,3.01898734 12.388389,3.01898734 C16.2538378,3.01898734 19.3915184,6.87721519 19.3915184,11.6240506 L19.3915184,15.6075949 C19.3915184,18.0607595 20.1016822,20.3544304 20.8680299,22.6329114 L12.3767777,22.6329114 Z M12.2355689,26.7759494 C11.4212777,26.7759494 10.7096156,26.4303797 10.3193252,25.6708861 L12.0939856,25.6708861 C12.1426783,25.6708861 12.1883745,25.6594937 12.2355689,25.6556962 C12.2827634,25.6594937 12.3284596,25.6708861 12.3767777,25.6708861 L14.1518127,25.6708861 C13.7615223,26.4303797 13.0498602,26.7759494 12.2355689,26.7759494 Z M24.39263,23.635443 L24.1472939,22.9253165 C23.2768188,20.5177215 22.3879903,18.0265823 22.3879903,15.6075949 L22.3879903,11.6240506 C22.3879903,5.21392405 17.8959044,-4.54747351e-13 12.388389,-4.54747351e-13 C12.3400709,-4.54747351e-13 12.2883818,0.00759493671 12.2411873,0.0151898734 C12.1939929,0.00759493671 12.1733922,-4.54747351e-13 12.125074,-4.54747351e-13 C6.6175587,-4.54747351e-13 2.16180499,5.21392405 2.16180499,11.6240506 L2.16180499,15.6075949 C2.16180499,18.0265823 1.23364782,20.5177215 0.363172735,22.9253165 L0.0927411469,23.635443 C-0.0743121613,24.0987342 -0.0147572824,24.6189873 0.263914604,25.021519 C0.54258649,25.4278481 0.990933598,25.6708861 1.47711116,25.6708861 L7.15392717,25.6708861 C7.6760624,27.9493671 9.75449022,29.7949367 12.2355689,29.7949367 C14.7166477,29.7949367 16.7947009,27.9493671 17.3172107,25.6708861 L22.9940267,25.6708861 C23.4802043,25.6708861 23.935668,25.4278481 24.2143399,25.021519 C24.4926372,24.6189873 24.5593087,24.0987342 24.39263,23.635443 Z" id="Fill-520"></path>
                </g>
                <g id="NOtification-Copy-2" transform="translate(6.818182, 25.500000)" fill="#638EE1">
                    <path d="M4.38847359,0.170886076 L5.27580383,0.170886076 C5.3244965,0.170886076 5.3701927,0.159493671 5.41738713,0.155696203 C5.46458156,0.159493671 5.51027776,0.170886076 5.55859587,0.170886076 L6.44611339,0.170886076 L10.4990289,0.170886076 C9.97651912,2.44936709 7.89846586,4.29493671 5.41738713,4.29493671 C2.9363084,4.29493671 0.857880579,2.44936709 0.335745352,0.170886076 L4.38847359,0.170886076 Z M4.38847359,0.170886076 L3.50114335,0.170886076 C3.89143382,0.930379747 4.60309589,1.27594937 5.41738713,1.27594937 C6.23167837,1.27594937 6.94334044,0.930379747 7.33363091,0.170886076 L6.44611339,0.170886076 L4.38847359,0.170886076 Z" id="Fill-520"></path>
                </g>
            </g>
        </g>
    </g>
</svg>