<?xml version="1.0" encoding="UTF-8"?>
<svg width="20px" height="20px" viewBox="0 0 20 20" version="1.1" xmlns="http://www.w3.org/2000/svg" xmlns:xlink="http://www.w3.org/1999/xlink">
    <!-- Generator: Sketch 52.5 (67469) - http://www.bohemiancoding.com/sketch -->
    <title>calendar</title>
    <desc>Created with Sketch.</desc>
    <g id="Version2" stroke="none" stroke-width="1" fill="none" fill-rule="evenodd">
        <g id="community-leaders-copy" transform="translate(-920.000000, -200.000000)">
            <g id="calendar" transform="translate(920.000000, 200.000000)">
                <polygon id="Fill-110" fill="#FFFFFF" points="1.10933333 18.8252632 18.7786667 18.8252632 18.7786667 2.92342105 1.10933333 2.92342105"></polygon>
                <path d="M2.168,17.7792105 L17.7173333,17.7792105 L17.7173333,3.96973684 L2.168,3.96973684 L2.168,17.7792105 Z M18.7786667,19.8715789 L1.10933333,19.8715789 C0.522666667,19.8715789 0.048,19.4031579 0.048,18.8252632 L0.048,2.92342105 C0.048,2.34552632 0.522666667,1.87736842 1.10933333,1.87736842 L18.7786667,1.87736842 C19.3626667,1.87736842 19.8373333,2.34552632 19.8373333,2.92342105 L19.8373333,18.8252632 C19.8373333,19.4031579 19.3626667,19.8715789 18.7786667,19.8715789 Z" id="Fill-111" fill="#CCCCCC"></path>
                <path d="M3.91733333,6.48052632 C3.33066667,6.48052632 2.85066667,6.01210526 2.85066667,5.43421053 L2.85066667,1.24947368 C2.85066667,0.671842105 3.33066667,0.203421053 3.91733333,0.203421053 C4.50133333,0.203421053 4.984,0.671842105 4.984,1.24947368 L4.984,5.43421053 C4.984,6.01210526 4.50133333,6.48052632 3.91733333,6.48052632" id="Fill-112" fill="#CCCCCC"></path>
                <path d="M7.91733333,6.48052632 C7.33066667,6.48052632 6.85066667,6.01210526 6.85066667,5.43421053 L6.85066667,1.24947368 C6.85066667,0.671842105 7.33066667,0.203421053 7.91733333,0.203421053 C8.50133333,0.203421053 8.984,0.671842105 8.984,1.24947368 L8.984,5.43421053 C8.984,6.01210526 8.50133333,6.48052632 7.91733333,6.48052632" id="Fill-113" fill="#CCCCCC"></path>
                <path d="M11.6506667,6.48052632 C11.064,6.48052632 10.584,6.01210526 10.584,5.43421053 L10.584,1.24947368 C10.584,0.671842105 11.064,0.203421053 11.6506667,0.203421053 C12.2346667,0.203421053 12.7173333,0.671842105 12.7173333,1.24947368 L12.7173333,5.43421053 C12.7173333,6.01210526 12.2346667,6.48052632 11.6506667,6.48052632" id="Fill-114" fill="#CCCCCC"></path>
                <path d="M15.384,6.48052632 C14.7973333,6.48052632 14.3173333,6.01210526 14.3173333,5.43421053 L14.3173333,1.24947368 C14.3173333,0.671842105 14.7973333,0.203421053 15.384,0.203421053 C15.968,0.203421053 16.4506667,0.671842105 16.4506667,1.24947368 L16.4506667,5.43421053 C16.4506667,6.01210526 15.968,6.48052632 15.384,6.48052632" id="Fill-115" fill="#CCCCCC"></path>
                <path d="M15.032,12.1360526 L4.85333333,12.1360526 C4.26933333,12.1360526 3.79466667,11.7928947 3.79466667,11.215 C3.79466667,10.6373684 4.26933333,10.2939474 4.85333333,10.2939474 L15.032,10.2939474 C15.616,10.2939474 16.0906667,10.6373684 16.0906667,11.215 C16.0906667,11.7928947 15.616,12.1360526 15.032,12.1360526" id="Fill-116" fill="#CCCCCC"></path>
                <path d="M15.032,16.0834211 L4.85333333,16.0834211 C4.26933333,16.0834211 3.79466667,15.6086842 3.79466667,15.0307895 C3.79466667,14.4531579 4.26933333,13.9781579 4.85333333,13.9781579 L15.032,13.9781579 C15.616,13.9781579 16.0906667,14.4531579 16.0906667,15.0307895 C16.0906667,15.6086842 15.616,16.0834211 15.032,16.0834211" id="Fill-117" fill="#CCCCCC"></path>
            </g>
        </g>
    </g>
</svg>