<?xml version="1.0" encoding="UTF-8"?>
<svg width="17px" height="22px" viewBox="0 0 17 22" version="1.1" xmlns="http://www.w3.org/2000/svg" xmlns:xlink="http://www.w3.org/1999/xlink">
    <!-- Generator: Sketch 52.5 (67469) - http://www.bohemiancoding.com/sketch -->
    <title>location grey</title>
    <desc>Created with Sketch.</desc>
    <g id="Version2" stroke="none" stroke-width="1" fill="none" fill-rule="evenodd">
        <g id="newsfeed&amp;blogs" transform="translate(-733.000000, -278.000000)" fill="#CCCCCC">
            <g id="location-grey" transform="translate(733.000000, 278.000000)">
                <path d="M8.44063492,2.29542169 C5.00015873,2.29542169 2.19920635,5.04674699 2.19920635,8.42891566 C2.19920635,11.0159036 6.15777778,16.3939759 8.44063492,19.1850602 C10.7261905,16.3939759 14.6847619,11.0159036 14.6847619,8.42891566 C14.6847619,5.04674699 11.8838095,2.29542169 8.44063492,2.29542169 Z M8.44063492,21.8939759 C8.12761905,21.8939759 7.82809524,21.7587952 7.62571429,21.5228916 C6.84857143,20.6296386 0.053968254,12.6619277 0.053968254,8.42891566 C0.053968254,3.88313253 3.81555556,0.188192771 8.44063492,0.188192771 C13.0684127,0.188192771 16.83,3.88313253 16.83,8.42891566 C16.83,12.6619277 10.0326984,20.6296386 9.25825397,21.5228916 C9.05587302,21.7587952 8.75634921,21.8939759 8.44063492,21.8939759 Z" id="Fill-240"></path>
                <path d="M8.44063492,6.87036145 C7.5447619,6.87036145 6.81349206,7.5860241 6.81349206,8.4686747 C6.81349206,9.3513253 7.5447619,10.066988 8.44063492,10.066988 C9.33920635,10.066988 10.0704762,9.3513253 10.0704762,8.4686747 C10.0704762,7.5860241 9.33920635,6.87036145 8.44063492,6.87036145 Z M8.44063492,12.1742169 C6.36015873,12.1742169 4.66825397,10.5122892 4.66825397,8.4686747 C4.66825397,6.42506024 6.36015873,4.76048193 8.44063492,4.76048193 C10.5238095,4.76048193 12.2157143,6.42506024 12.2157143,8.4686747 C12.2157143,10.5122892 10.5238095,12.1742169 8.44063492,12.1742169 Z" id="Fill-241"></path>
            </g>
        </g>
    </g>
</svg>