<?xml version="1.0" encoding="UTF-8"?>
<svg width="12px" height="12px" viewBox="0 0 12 12" version="1.1" xmlns="http://www.w3.org/2000/svg" xmlns:xlink="http://www.w3.org/1999/xlink">
    <!-- Generator: Sketch 54.1 (76490) - https://sketchapp.com -->
    <title>Group 42@2x</title>
    <desc>Created with Sketch.</desc>
    <g id="Version2" stroke="none" stroke-width="1" fill="none" fill-rule="evenodd">
        <g id="event-details-page" transform="translate(-654.000000, -387.000000)" fill="#CCCCCC">
            <g id="Group-42" transform="translate(654.000000, 387.000000)">
                <path d="M0.790588235,6.91371429 C0.421764706,6.91371429 0.111176471,6.63257143 0.0917647059,6.26914286 L0.09,6.23828571 C0.0847058824,6.13371429 0.0758823529,5.93314286 0.0758823529,5.84057143 C0.0758823529,2.67085714 2.73176471,0.0205714286 5.99647059,0.0205714286 L5.99823529,0.0205714286 C6.38470588,0.0205714286 6.69882353,0.375428571 6.70058824,0.750857143 C6.70235294,1.12628571 6.38823529,1.45885714 6.00176471,1.46057143 C3.50823529,1.46742857 1.47882353,3.45771429 1.47882353,5.88 C1.47882353,5.952 1.48588235,6.07714286 1.49117647,6.15771429 L1.49294118,6.19371429 C1.51235294,6.56914286 1.21588235,6.89142857 0.829411765,6.912 C0.817058824,6.912 0.802941176,6.91371429 0.790588235,6.91371429" id="Fill-170"></path>
                <path d="M6.82764706,5.50628571 L10.5335294,5.50628571 C10.3411765,3.44914286 8.76882353,1.836 6.82764706,1.53428571 L6.82764706,5.50628571 Z M11.2394118,6.87771429 L5.99823529,6.87771429 C5.61176471,6.87771429 5.41588235,6.54171429 5.41588235,6.16457143 L5.41588235,0.804 C5.41588235,0.437142857 5.65588235,0.137142857 6.03176471,0.123428571 C6.04588235,0.121714286 6.03352941,0.121714286 6.04588235,0.121714286 C9.32117647,0.121714286 11.97,2.71028571 11.97,5.892 C11.97,5.97085714 11.9576471,6.048 11.9523529,6.12342857 L11.9435294,6.216 C11.9241176,6.57771429 11.6135294,6.87771429 11.2394118,6.87771429 L11.2394118,6.87771429 Z" id="Fill-171"></path>
                <path d="M5.98058824,11.6622857 C5.97705882,11.6622857 5.94705882,11.6622857 5.94176471,11.6622857 C5.55705882,11.6554286 5.23588235,11.3485714 5.23941176,10.9748571 C5.24294118,10.5994286 5.54294118,10.3868571 5.92941176,10.3868571 C5.93294118,10.3868571 5.96294118,10.4777143 5.96647059,10.4777143 L5.96823529,10.4777143 C8.40882353,10.4777143 10.4117647,8.556 10.5388235,6.21771429 C10.56,5.84228571 10.8917647,5.49942857 11.2782353,5.52857143 C11.6647059,5.54914286 11.9611765,5.84742857 11.94,6.22285714 C11.7723529,9.28628571 9.15529412,11.6622857 5.98058824,11.6622857" id="Fill-172"></path>
                <path d="M5.99823529,11.8491429 L5.99647059,11.8491429 C2.85,11.8491429 0.255882353,9.37542857 0.0917647059,6.36342857 C0.0705882353,5.98628571 0.367058824,5.61942857 0.755294118,5.59885714 C1.14,5.57657143 1.47176471,5.844 1.49294118,6.21942857 C1.62,8.55085714 3.55764706,10.3028571 6.00176471,10.3097143 C6.38823529,10.3114286 6.70235294,10.7057143 6.70058824,11.0811429 C6.69882353,11.4565714 6.38470588,11.8491429 5.99823529,11.8491429" id="Fill-173"></path>
            </g>
        </g>
    </g>
</svg>