<?xml version="1.0" encoding="UTF-8"?>
<svg width="19px" height="20px" viewBox="0 0 19 20" version="1.1" xmlns="http://www.w3.org/2000/svg" xmlns:xlink="http://www.w3.org/1999/xlink">
    <!-- Generator: Sketch 52.5 (67469) - http://www.bohemiancoding.com/sketch -->
    <title>about-grey</title>
    <desc>Created with Sketch.</desc>
    <g id="Version2" stroke="none" stroke-width="1" fill="none" fill-rule="evenodd">
        <g id="live" transform="translate(-135.000000, -415.000000)">
            <g id="about-grey" transform="translate(135.000000, 415.000000)">
                <path d="M17.6444672,18.7742857 L1.15969309,18.7742857 L1.15969309,16.4142857 C1.15969309,14.2057143 2.86963342,12.4142857 4.97895993,12.4142857 L13.8252003,12.4142857 C15.9345269,12.4142857 17.6444672,14.2057143 17.6444672,16.4142857 L17.6444672,18.7742857" id="Fill-130" fill="#FFFFFF"></path>
                <path d="M2.36276215,17.64 L16.4413981,17.64 C15.9446206,15.3028571 13.9495993,13.5514286 11.5710145,13.5514286 L7.23314578,13.5514286 C4.85456095,13.5514286 2.85953964,15.3028571 2.36276215,17.64 Z M17.6444672,19.9114286 L1.15969309,19.9114286 C0.560613811,19.9114286 0.0752941176,19.4028571 0.0752941176,18.7771429 C0.0752941176,14.6428571 3.28620631,11.28 7.23314578,11.28 L11.5710145,11.28 C15.517954,11.28 18.7288662,14.6428571 18.7288662,18.7771429 C18.7288662,19.4028571 18.2435465,19.9114286 17.6444672,19.9114286 Z" id="Fill-131" fill="#999999"></path>
                <path d="M13.0894459,5.06857143 C13.0894459,7.20285714 11.4387042,8.93142857 9.40221654,8.93142857 C7.3657289,8.93142857 5.71471441,7.20285714 5.71471441,5.06857143 C5.71471441,2.93714286 7.3657289,1.20857143 9.40221654,1.20857143 C11.4387042,1.20857143 13.0894459,2.93714286 13.0894459,5.06857143" id="Fill-132" fill="#FFFFFF"></path>
                <path d="M9.40194373,2.34285714 C7.96671782,2.34285714 6.79911338,3.56571429 6.79911338,5.06857143 C6.79911338,6.57428571 7.96671782,7.79714286 9.40194373,7.79714286 C10.8374425,7.79714286 12.0050469,6.57428571 12.0050469,5.06857143 C12.0050469,3.56571429 10.8374425,2.34285714 9.40194373,2.34285714 Z M9.40194373,10.0685714 C6.77074169,10.0685714 4.63004263,7.82571429 4.63004263,5.06857143 C4.63004263,2.31428571 6.77074169,0.0714285714 9.40194373,0.0714285714 C12.0334186,0.0714285714 14.1738448,2.31428571 14.1738448,5.06857143 C14.1738448,7.82571429 12.0334186,10.0685714 9.40194373,10.0685714 Z" id="Fill-133" fill="#999999"></path>
            </g>
        </g>
    </g>
</svg>