<?xml version="1.0" encoding="UTF-8"?>
<svg width="30px" height="30px" viewBox="0 0 30 30" version="1.1" xmlns="http://www.w3.org/2000/svg" xmlns:xlink="http://www.w3.org/1999/xlink">
    <!-- Generator: Sketch 52.5 (67469) - http://www.bohemiancoding.com/sketch -->
    <title>facebook</title>
    <desc>Created with Sketch.</desc>
    <g id="Version2" stroke="none" stroke-width="1" fill="none" fill-rule="evenodd">
        <g id="organization-profile" transform="translate(-82.000000, -587.000000)">
            <g id="facebook" transform="translate(82.000000, 587.000000)">
                <circle id="Oval-Copy-2" fill="#22599D" cx="15" cy="15" r="15"></circle>
                <path d="M18.2587193,8.62765285 L16.6053299,8.625 C14.7478036,8.625 13.5473885,9.85658609 13.5473885,11.7627922 L13.5473885,13.2095245 L11.8849794,13.2095245 C11.7413275,13.2095245 11.625,13.3259847 11.625,13.4696366 L11.625,15.5657868 C11.625,15.7094387 11.7414602,15.8257662 11.8849794,15.8257662 L13.5473885,15.8257662 L13.5473885,21.1150206 C13.5473885,21.2586725 13.663716,21.375 13.8073679,21.375 L15.9763389,21.375 C16.1199908,21.375 16.2363183,21.2585398 16.2363183,21.1150206 L16.2363183,15.8257662 L18.1800623,15.8257662 C18.3237141,15.8257662 18.4400417,15.7094387 18.4400417,15.5657868 L18.4408375,13.4696366 C18.4408375,13.4006624 18.4133805,13.3346064 18.3647007,13.285794 C18.3160209,13.2369815 18.2496996,13.2095245 18.1807255,13.2095245 L16.2363183,13.2095245 L16.2363183,11.9831115 C16.2363183,11.393648 16.3767868,11.0944064 17.1446545,11.0944064 L18.258454,11.0940085 C18.4019733,11.0940085 18.5183008,10.9775483 18.5183008,10.8340291 L18.5183008,8.88763225 C18.5183008,8.74424565 18.4021059,8.62791814 18.2587193,8.62765285 Z" id="Path" fill="#FFFFFF"></path>
            </g>
        </g>
    </g>
</svg>