<?xml version="1.0" encoding="UTF-8"?>
<svg width="30px" height="30px" viewBox="0 0 30 30" version="1.1" xmlns="http://www.w3.org/2000/svg" xmlns:xlink="http://www.w3.org/1999/xlink">
    <!-- Generator: Sketch 52.5 (67469) - http://www.bohemiancoding.com/sketch -->
    <title>instagram</title>
    <desc>Created with Sketch.</desc>
    <defs>
        <linearGradient x1="50%" y1="0%" x2="50%" y2="100%" id="linearGradient-1">
            <stop stop-color="#FA7F28" offset="0%"></stop>
            <stop stop-color="#D0257F" offset="100%"></stop>
        </linearGradient>
    </defs>
    <g id="Version2" stroke="none" stroke-width="1" fill="none" fill-rule="evenodd">
        <g id="organization-profile" transform="translate(-45.000000, -587.000000)">
            <g id="instagram" transform="translate(45.000000, 587.000000)">
                <circle id="Oval" fill="url(#linearGradient-1)" cx="15" cy="15" r="15"></circle>
                <g transform="translate(15.000000, 15.000000) scale(-1, 1) translate(-15.000000, -15.000000) translate(9.000000, 9.000000)" fill="#FFFFFF">
                    <path d="M0,2.49331054 L0,9.50668946 C0,10.8837158 1.11628418,12 2.49331054,12 L9.50668946,12 C10.8837158,12 12,10.8837158 12,9.50668946 L12,2.49331054 C12,1.11628418 10.8837158,0 9.50668946,0 L2.49331054,0 C1.11628418,0 0,1.11628418 0,2.49331054 Z M7.27111817,9.40004884 C4.31132813,10.4212646 1.57873536,7.68867187 2.59995116,4.72888183 C2.94404297,3.73132324 3.73125,2.94404297 4.72880859,2.59995116 C7.68867187,1.57873536 10.4212646,4.31132813 9.40004884,7.27119141 C9.05595703,8.26875 8.26875,9.05595703 7.27111817,9.40004884 Z M10.1638916,2.37143554 C10.1167969,2.61804199 9.91274415,2.76152344 9.70166016,2.76152344 C9.57319335,2.76152344 9.44223634,2.70849609 9.34196777,2.59343261 C9.33310547,2.58325196 9.32482911,2.57233886 9.31750489,2.56098634 C9.21401366,2.40278321 9.21079103,2.21484375 9.29875489,2.06242676 C9.36101074,1.95454103 9.46149902,1.87749023 9.58183594,1.84526366 C9.70202636,1.81289063 9.82770996,1.82951661 9.93544922,1.89184571 C10.0879395,1.97973634 10.1790527,2.14416504 10.1686523,2.33269043 C10.1679199,2.34558105 10.1663818,2.35869141 10.1638916,2.37143554 Z" id="Shape" fill-rule="nonzero"></path>
                    <path d="M6.06818182,3.13636364 C4.45149055,3.13636364 3.13636364,4.45149055 3.13636364,6.06818182 C3.13636364,7.68487308 4.45149055,9 6.06818182,9 C7.68487308,9 9,7.68487308 9,6.06818182 C9,4.45149055 7.68487308,3.13636364 6.06818182,3.13636364 Z" id="Path"></path>
                </g>
            </g>
        </g>
    </g>
</svg>