<?xml version="1.0" encoding="UTF-8"?>
<svg width="30px" height="30px" viewBox="0 0 30 30" version="1.1" xmlns="http://www.w3.org/2000/svg" xmlns:xlink="http://www.w3.org/1999/xlink">
    <!-- Generator: Sketch 52.5 (67469) - http://www.bohemiancoding.com/sketch -->
    <title>linkedin</title>
    <desc>Created with Sketch.</desc>
    <g id="Version2" stroke="none" stroke-width="1" fill="none" fill-rule="evenodd">
        <g id="organization-profile" transform="translate(-120.000000, -587.000000)">
            <g id="linkedin" transform="translate(120.000000, 587.000000)">
                <circle id="Oval-Copy-3" fill="#0075B8" cx="15" cy="15" r="15"></circle>
                <path d="M21.375,16.4704417 L21.375,21.1831674 L18.6411754,21.1831674 L18.6411754,16.7838821 C18.6411754,15.6778147 18.246995,14.9260909 17.2577978,14.9260909 C16.5013011,14.9260909 16.0550451,15.435035 15.8558351,15.924834 C15.7841077,16.1012192 15.7623229,16.3482386 15.7623229,16.5920848 L15.7623229,21.1826075 L13.0311914,21.1826075 C13.0311914,21.1826075 13.067855,13.7344839 13.0311914,12.9631084 L15.7628828,12.9631084 L15.7628828,14.128131 C15.7591765,14.1377035 15.7512038,14.1456495 15.7474708,14.1562886 L15.7628828,14.1562886 L15.7628828,14.128131 C16.127839,13.5682045 16.7743716,12.7702446 18.2262768,12.7702446 C20.028286,12.7702712 21.375,13.9448663 21.375,16.4704417 Z M10.1714573,9 C9.23700213,9 8.625,9.61306871 8.625,10.4216411 C8.625,11.2084286 9.21895031,11.8422156 10.1363936,11.8422156 L10.1528722,11.8422156 C11.1080456,11.8422156 11.6998628,11.2084286 11.6998628,10.4216411 C11.6812776,9.61306871 11.1080723,9 10.1714573,9 Z M8.78810635,21.1831408 L11.5203311,21.1831408 L11.5203311,12.9626018 L8.78810635,12.9626018 L8.78810635,21.1831408 Z" id="LinkedIn_3_" fill="#FFFFFF" fill-rule="nonzero"></path>
            </g>
        </g>
    </g>
</svg>