<?xml version="1.0" encoding="UTF-8"?>
<svg width="40px" height="40px" viewBox="0 0 40 40" version="1.1" xmlns="http://www.w3.org/2000/svg" xmlns:xlink="http://www.w3.org/1999/xlink">
    <!-- Generator: Sketch 52.5 (67469) - http://www.bohemiancoding.com/sketch -->
    <title>camera</title>
    <desc>Created with Sketch.</desc>
    <g id="Version2" stroke="none" stroke-width="1" fill="none" fill-rule="evenodd">
        <g id="member-profile-edit" transform="translate(-155.000000, -437.000000)">
            <g id="camera" transform="translate(155.000000, 437.000000)">
                <circle id="Oval-Copy-2" fill="#669DFF" cx="20" cy="20" r="20"></circle>
                <g id="Group-7" transform="translate(10.000000, 12.000000)" fill="#FFFFFF">
                    <path d="M2.54072076,5.33312171 C2.30764418,5.33312171 2.11788742,5.52261271 2.11788742,5.75568929 L2.11788742,13.3627029 C2.11788742,13.5960453 2.30764418,13.7855363 2.54072076,13.7855363 L16.9096129,13.7855363 C17.1426895,13.7855363 17.3321805,13.5960453 17.3321805,13.3627029 L17.3321805,5.75568929 C17.3321805,5.52261271 17.1426895,5.33312171 16.9096129,5.33312171 L14.7965093,5.33312171 C13.3983155,5.33312171 12.260838,4.19564422 12.260838,2.7974505 C12.260838,2.56410815 12.0710813,2.37488292 11.8382705,2.37488292 L7.61206319,2.37488292 C7.37898661,2.37488292 7.18949562,2.56410815 7.18949562,2.7974505 C7.18949562,4.19564422 6.05201812,5.33312171 4.6538244,5.33312171 L2.54072076,5.33312171 Z M16.9096129,15.8983741 L2.54072076,15.8983741 C1.14226128,15.8983741 0.00504954964,14.7611624 0.00504954964,13.3627029 L0.00504954964,5.75568929 C0.00504954964,4.35749557 1.14226128,3.22001807 2.54072076,3.22001807 L4.6538244,3.22001807 C4.88663522,3.22001807 5.07639198,3.03052708 5.07639198,2.7974505 C5.07639198,1.39899101 6.21386947,0.261779284 7.61206319,0.261779284 L11.8382705,0.261779284 C13.2364642,0.261779284 14.3739417,1.39899101 14.3739417,2.7974505 C14.3739417,3.03052708 14.5634327,3.22001807 14.7965093,3.22001807 L16.9096129,3.22001807 C18.3078066,3.22001807 19.4452841,4.35749557 19.4452841,5.75568929 L19.4452841,13.3627029 C19.4452841,14.7611624 18.3078066,15.8983741 16.9096129,15.8983741 Z" id="Fill-260"></path>
                    <path d="M9.72516683,6.81237399 C8.56004969,6.81237399 7.61206319,7.76036049 7.61206319,8.92521186 C7.61206319,10.090329 8.56004969,11.0383155 9.72516683,11.0383155 C10.890284,11.0383155 11.8382705,10.090329 11.8382705,8.92521186 C11.8382705,7.76036049 10.890284,6.81237399 9.72516683,6.81237399 Z M9.72516683,13.1514191 C7.39466679,13.1514191 5.49895955,11.2554461 5.49895955,8.92521186 C5.49895955,6.59524336 7.39466679,4.69927035 9.72516683,4.69927035 C12.0554011,4.69927035 13.9513741,6.59524336 13.9513741,8.92521186 C13.9513741,11.2554461 12.0554011,13.1514191 9.72516683,13.1514191 Z" id="Fill-261"></path>
                </g>
            </g>
        </g>
    </g>
</svg>