<?xml version="1.0" encoding="UTF-8"?>
<svg width="20px" height="18px" viewBox="0 0 20 18" version="1.1" xmlns="http://www.w3.org/2000/svg" xmlns:xlink="http://www.w3.org/1999/xlink">
    <!-- Generator: Sketch 52.5 (67469) - http://www.bohemiancoding.com/sketch -->
    <title>heart line</title>
    <desc>Created with Sketch.</desc>
    <g id="Version2" stroke="none" stroke-width="1" fill="none" fill-rule="evenodd">
        <g id="newsfeed&amp;blogs" transform="translate(-270.000000, -1404.000000)" fill="#CCCCCC">
            <path d="M286.693216,1412.49105 L285.73686,1413.45598 C285.736577,1413.45884 285.736293,1413.45884 285.73601,1413.45884 L279.999858,1419.25125 L274.26399,1413.45884 C274.263707,1413.45884 274.263423,1413.45884 274.26314,1413.45598 L273.307067,1412.49105 C271.901161,1411.07087 271.901161,1408.7602 273.306784,1407.34001 C274.712973,1405.91983 277.000687,1405.91983 278.40631,1407.34001 L278.729441,1407.66643 C278.763455,1407.90122 278.865496,1408.12742 279.044069,1408.30494 C279.304842,1408.56836 279.661704,1408.6743 280.000709,1408.62276 C280.33943,1408.67144 280.695158,1408.56836 280.955931,1408.30494 C281.13422,1408.12742 281.236545,1407.90122 281.270559,1407.66643 L281.593407,1407.34001 C282.99988,1405.91983 285.287594,1405.91983 286.692933,1407.34001 C288.098839,1408.7602 288.098839,1411.07087 286.693216,1412.49105 Z M288.286765,1405.73085 C286.002168,1403.42305 282.285022,1403.42305 280.000142,1405.73085 L279.999858,1405.73085 C277.715545,1403.42305 273.998115,1403.42305 271.713235,1405.73085 C269.428922,1408.03865 269.428922,1411.79241 271.713235,1414.10021 L272.669591,1415.068 C272.669874,1415.068 272.670441,1415.068 272.670725,1415.068 L279.203367,1421.66786 C279.42304,1421.88833 279.711591,1422 279.999858,1422 C280.288409,1422 280.57696,1421.88833 280.796633,1421.66786 L287.329275,1415.068 C287.329559,1415.068 287.330126,1415.068 287.330409,1415.068 L288.286765,1414.10021 C290.571078,1411.79241 290.571078,1408.03865 288.286765,1405.73085 Z" id="heart-line"></path>
        </g>
    </g>
</svg>