<?xml version="1.0" encoding="UTF-8"?>
<svg width="19px" height="20px" viewBox="0 0 19 20" version="1.1" xmlns="http://www.w3.org/2000/svg" xmlns:xlink="http://www.w3.org/1999/xlink">
    <!-- Generator: Sketch 52.5 (67469) - http://www.bohemiancoding.com/sketch -->
    <title>comments</title>
    <desc>Created with Sketch.</desc>
    <g id="Version2" stroke="none" stroke-width="1" fill="none" fill-rule="evenodd">
        <g id="newsfeed&amp;blogs" transform="translate(-369.000000, -722.000000)" fill="#CCCCCC">
            <path d="M378.500713,724.139062 C374.461668,724.139062 371.178404,727.36689 371.178404,731.334015 C371.178404,732.987208 371.764408,734.602736 372.82962,735.882783 C373.084285,736.190823 373.147267,736.613201 372.988444,736.979083 L372.153251,738.899961 L374.601323,737.871995 C374.883372,737.754429 375.201019,737.757926 375.480329,737.881411 C376.441485,738.311053 377.457408,738.528699 378.500713,738.528699 C382.539759,738.528699 385.823023,735.301139 385.823023,731.334015 C385.823023,727.36689 382.539759,724.139062 378.500713,724.139062 Z M370.088546,742 C369.806498,742 369.527187,741.89185 369.319074,741.687117 C369.004165,741.37827 368.9138,740.912848 369.086315,740.510916 L370.737532,736.710859 C369.612076,735.144295 369.001427,733.258659 369.001427,731.334015 C369.001427,726.18746 373.262277,722 378.500713,722 C383.73915,722 388,726.18746 388,731.334015 C388,736.480569 383.73915,740.667761 378.500713,740.667761 C377.306799,740.667761 376.143006,740.449039 375.031242,740.017514 L370.515726,741.91391 C370.37881,741.972021 370.233678,742 370.088546,742 Z" id="comments"></path>
        </g>
    </g>
</svg>