<?xml version="1.0" encoding="UTF-8"?>
<svg width="20px" height="18px" viewBox="0 0 20 18" version="1.1" xmlns="http://www.w3.org/2000/svg" xmlns:xlink="http://www.w3.org/1999/xlink">
    <!-- Generator: Sketch 52.5 (67469) - http://www.bohemiancoding.com/sketch -->
    <title>heart fill</title>
    <desc>Created with Sketch.</desc>
    <g id="Version2" stroke="none" stroke-width="1" fill="none" fill-rule="evenodd">
        <g id="newsfeed&amp;blogs" transform="translate(-270.000000, -723.000000)" fill="#FF5A73">
            <path d="M288.286765,724.730852 C290.571078,727.038654 290.571078,730.792412 288.286765,733.100215 L287.330409,734.068003 C287.330126,734.068003 287.329559,734.068003 287.329275,734.068003 L280.796633,740.66786 C280.57696,740.888332 280.288409,741 279.999858,741 C279.711591,741 279.42304,740.888332 279.203367,740.66786 L272.670725,734.068003 C272.670441,734.068003 272.669874,734.068003 272.669591,734.068003 L271.713235,733.100215 C269.428922,730.792412 269.428922,727.038654 271.713235,724.730852 C273.998115,722.423049 277.715545,722.423049 279.999858,724.730852 L280.000142,724.730852 C282.285022,722.423049 286.002168,722.423049 288.286765,724.730852 Z" id="heart-fill"></path>
        </g>
    </g>
</svg>