<?xml version="1.0" encoding="UTF-8"?>
<svg width="20px" height="18px" viewBox="0 0 20 18" version="1.1" xmlns="http://www.w3.org/2000/svg" xmlns:xlink="http://www.w3.org/1999/xlink">
    <!-- Generator: Sketch 52.5 (67469) - http://www.bohemiancoding.com/sketch -->
    <title>share</title>
    <desc>Created with Sketch.</desc>
    <g id="Version2" stroke="none" stroke-width="1" fill="none" fill-rule="evenodd">
        <g id="newsfeed&amp;blogs" transform="translate(-503.000000, -723.000000)" fill="#CCCCCC">
            <path d="M513.219916,733.804322 C513.792944,733.804322 514.210197,733.832197 514.274176,733.837493 C514.849985,733.884323 515.33678,734.36489 515.33678,734.942183 L515.33678,737.193934 L520.424485,732.033138 L515.33678,726.823839 L515.33678,728.736349 C515.33678,729.150852 515.061393,729.53079 514.69421,729.720898 C514.149,730.002158 513.464705,730.253312 512.694178,730.543771 C510.262984,731.462813 507.125241,732.643881 505.823412,735.555157 C508.421507,734.021747 511.612102,733.804322 513.219916,733.804322 Z M514.140655,741 C513.998789,741 513.893085,740.972961 513.759564,740.916932 C513.342311,740.746058 513.111431,740.341033 513.111431,739.891686 L513.111431,736.025688 C511.16425,736.05217 506.886016,736.446881 505.058448,739.243311 C504.791406,739.653633 504.265667,739.838445 503.798344,739.697954 C503.331021,739.557742 503,739.125957 503,738.635913 C503,731.834109 508.605098,729.728424 511.934777,728.469864 C512.354812,728.310697 512.833262,728.164352 513.111431,728.024977 L513.111431,724.107968 C513.111431,723.657785 513.345092,723.252202 513.759564,723.081885 C514.176817,722.912126 514.635795,723.011361 514.950125,723.332761 L522.685996,731.261555 C523.108812,731.693898 523.103249,732.385479 522.677651,732.81587 L514.930654,740.670795 C514.716464,740.885712 514.42995,741 514.140655,741 Z" id="share"></path>
        </g>
    </g>
</svg>