<?xml version="1.0" encoding="UTF-8"?>
<svg width="437px" height="104px" viewBox="0 0 437 104" version="1.1" xmlns="http://www.w3.org/2000/svg" xmlns:xlink="http://www.w3.org/1999/xlink">
    <!-- Generator: Sketch 52.5 (67469) - http://www.bohemiancoding.com/sketch -->
    <title>Group 50</title>
    <desc>Created with Sketch.</desc>
    <g id="Version2" stroke="none" stroke-width="1" fill="none" fill-rule="evenodd">
        <g id="Group-50" fill="#FFFFFF">
            <path d="M88.1,73.4 L92.4,67.3 C93.4,65.9 95.4,65.6 96.8,66.7 C98.8,68.4 101.2,69.9 103.7,71.1 C107.3,72.8 111.3,73.6 115.6,73.6 C119.3,73.6 122.2,72.9 124.2,71.5 C126.2,70.1 127.2,68.3 127.2,66.2 C127.2,64.8 126.6,63.6 125.5,62.6 C124.4,61.6 122.9,60.8 121.1,60.3 C119.3,59.8 117.3,59.2 115,58.6 C112.7,58 110.4,57.4 108,56.8 C105.6,56.3 103.2,55.5 100.9,54.4 C98.6,53.4 96.6,52.2 94.8,50.8 C93,49.4 91.6,47.6 90.5,45.3 C89.4,43 88.8,40.3 88.8,37.3 C88.8,31.6 91.1,26.8 95.7,22.9 C100.3,19 106.4,17.1 114.1,17.1 C123.6,17.1 131.5,19.5 137.8,24.4 C139.1,25.4 139.3,27.2 138.3,28.5 L134,34.3 C133,35.6 131.2,35.9 129.8,35 C127.7,33.5 125.5,32.3 123.1,31.4 C119.7,30.2 116.3,29.6 112.8,29.6 C109.8,29.6 107.5,30.2 105.9,31.4 C104.2,32.6 103.4,34.2 103.4,36.2 C103.4,37.4 103.9,38.5 105,39.4 C106.1,40.3 107.6,41 109.4,41.5 C111.2,42 113.3,42.5 115.6,43.1 C117.9,43.7 120.2,44.2 122.6,44.8 C125,45.4 127.3,46.2 129.6,47.3 C131.9,48.4 133.9,49.6 135.7,51 C137.5,52.4 138.9,54.3 140,56.6 C141.1,58.9 141.6,61.6 141.6,64.6 C141.6,71 139.3,76.1 134.8,80.1 C130.2,84 123.7,86 115.1,86 C104.3,86 95.5,83.1 88.7,77.3 C87.4,76.4 87.2,74.7 88.1,73.4 Z" id="Path"></path>
            <path d="M146.7,73.4 C144.7,69.6 143.7,65.4 143.7,60.7 C143.7,56.1 144.7,51.9 146.7,48.1 C148.7,44.3 151.6,41.2 155.6,38.9 C159.5,36.6 164,35.4 169.2,35.4 C174.4,35.4 178.9,36.6 182.8,38.9 C186.7,41.2 189.7,44.3 191.7,48.1 C193.7,51.9 194.7,56.1 194.7,60.7 C194.7,65.3 193.7,69.5 191.7,73.4 C189.7,77.2 186.7,80.3 182.8,82.7 C178.9,85.1 174.3,86.2 169.2,86.2 C164.1,86.2 159.6,85 155.6,82.7 C151.7,80.3 148.7,77.2 146.7,73.4 Z M156.8,60.7 C156.8,64.7 157.9,68 160.1,70.7 C162.3,73.4 165.3,74.8 169.1,74.8 C172.9,74.8 176,73.4 178.2,70.7 C180.4,68 181.5,64.6 181.5,60.6 C181.5,56.7 180.4,53.3 178.2,50.7 C176,48.1 172.9,46.7 169.1,46.7 C165.3,46.7 162.3,48 160.1,50.7 C157.9,53.4 156.8,56.7 156.8,60.7 Z" id="Shape" fill-rule="nonzero"></path>
            <path d="M197.2,60.7 C197.2,53.3 199.6,47.2 204.4,42.5 C209.2,37.8 215.3,35.4 222.8,35.4 C230,35.4 235.7,37.5 239.9,41.8 C241.1,43 241,44.9 239.8,46.1 L235.9,49.8 C234.8,50.9 233,50.9 231.8,49.8 C229.6,47.8 226.8,46.7 223.4,46.7 C219.5,46.7 216.4,48 214,50.6 C211.6,53.2 210.4,56.5 210.4,60.7 C210.4,64.9 211.6,68.3 214,70.9 C216.4,73.5 219.6,74.8 223.4,74.8 C226.8,74.8 229.6,73.7 231.8,71.6 C232.9,70.5 234.7,70.6 235.9,71.6 L239.8,75.3 C241,76.5 241.1,78.4 239.9,79.6 C238.4,81.1 236.5,82.4 234.4,83.6 C231.2,85.3 227.4,86.1 222.8,86.1 C215.4,86.1 209.3,83.7 204.4,78.9 C199.6,74.2 197.2,68.1 197.2,60.7 Z" id="Path"></path>
            <path d="M245.1,29.2 C243.6,27.7 242.9,25.9 242.9,23.9 C242.9,21.8 243.6,20 245.1,18.6 C246.6,17.1 248.3,16.4 250.4,16.4 C252.5,16.4 254.3,17.1 255.8,18.6 C257.3,20.1 258,21.8 258,23.9 C258,26 257.3,27.8 255.8,29.2 C254.3,30.7 252.5,31.4 250.4,31.4 C248.4,31.4 246.6,30.6 245.1,29.2 Z M244.1,81.9 L244.1,39.6 C244.1,37.9 245.4,36.6 247.1,36.6 L253.8,36.6 C255.5,36.6 256.8,37.9 256.8,39.6 L256.8,81.9 C256.8,83.6 255.5,84.9 253.8,84.9 L247.1,84.9 C245.5,84.9 244.1,83.6 244.1,81.9 Z" id="Shape" fill-rule="nonzero"></path>
            <path d="M263.4,73.4 C261.4,69.6 260.4,65.4 260.4,60.7 C260.4,56.1 261.4,51.9 263.4,48.1 C265.4,44.3 268.3,41.2 272.3,38.9 C276.2,36.6 280.7,35.4 285.9,35.4 C291.1,35.4 295.6,36.6 299.5,38.9 C303.4,41.2 306.4,44.3 308.4,48.1 C310.4,51.9 311.4,56.1 311.4,60.7 C311.4,65.3 310.4,69.5 308.4,73.4 C306.4,77.2 303.4,80.3 299.5,82.7 C295.6,85.1 291,86.2 285.9,86.2 C280.8,86.2 276.3,85 272.3,82.7 C268.3,80.3 265.3,77.2 263.4,73.4 Z M273.4,60.7 C273.4,64.7 274.5,68 276.7,70.7 C278.9,73.4 281.9,74.8 285.7,74.8 C289.5,74.8 292.6,73.4 294.8,70.7 C297,68 298.1,64.6 298.1,60.6 C298.1,56.7 297,53.3 294.8,50.7 C292.6,48.1 289.5,46.7 285.7,46.7 C281.9,46.7 278.9,48 276.7,50.7 C274.5,53.4 273.4,56.7 273.4,60.7 Z" id="Shape" fill-rule="nonzero"></path>
            <path d="M315.2,81.9 L315.2,21.2 C315.2,19.5 316.5,18.2 318.2,18.2 L341.5,18.2 C352,18.2 360.5,21.3 367,27.4 C373.5,33.5 376.8,41.6 376.8,51.5 C376.8,58.1 375.3,64 372.3,69.1 C369.3,74.2 365.2,78.1 359.8,80.8 C354.5,83.5 348.4,84.9 341.5,84.9 L318.1,84.9 C316.5,84.9 315.2,83.6 315.2,81.9 Z M329.4,72.4 L341.5,72.4 C345.8,72.4 349.5,71.4 352.7,69.5 C355.9,67.6 358.3,65.1 360,61.9 C361.7,58.7 362.4,55.3 362.4,51.5 C362.4,45.4 360.6,40.4 356.9,36.5 C353.3,32.6 348.1,30.7 341.6,30.7 L329.4,30.7 L329.4,72.4 Z" id="Shape" fill-rule="nonzero"></path>
            <path d="M381,81.9 L381,21.2 C381,19.5 382.3,18.2 384,18.2 L416,18.2 C419.1,18.2 421.8,18.7 424.3,19.6 C426.8,20.5 428.8,21.8 430.3,23.4 C431.8,25 433,26.8 433.9,28.8 C434.7,30.8 435.1,33 435.1,35.2 C435.1,39.2 434,42.6 431.9,45.3 C429.7,48.1 427,49.8 423.8,50.5 C427.4,51.1 430.4,52.9 432.8,56 C435.2,59.1 436.5,62.7 436.5,66.8 C436.5,72.1 434.8,76.4 431.4,79.8 C428,83.2 423.3,84.9 417.1,84.9 L384,84.9 C382.3,84.9 381,83.6 381,81.9 Z M395.2,44.7 L413,44.7 C415.4,44.7 417.3,44.1 418.7,42.8 C420.1,41.5 420.8,39.8 420.8,37.7 C420.8,35.6 420.1,33.9 418.7,32.6 C417.3,31.3 415.4,30.7 413,30.7 L395.2,30.7 L395.2,44.7 Z M395.2,72.4 L413.6,72.4 C416.3,72.4 418.4,71.7 419.8,70.4 C421.3,69 422,67.2 422,64.8 C422,62.6 421.3,60.8 419.8,59.4 C418.3,58 416.2,57.3 413.6,57.3 L395.2,57.3 L395.2,72.4 Z" id="Shape" fill-rule="nonzero"></path>
            <path d="M29.9,52.5 C29.9,56.3 26.3,59.1 22.6,58.2 C9.6,55 0,43.3 0,29.2 C0,15.1 9.6,3.4 22.7,0.2 C26.4,-0.7 30,2.1 30,5.9 L30,52.5 L29.9,52.5 Z" id="Path"></path>
            <path d="M44.9,50.8 C44.9,47 48.5,44.2 52.2,45.1 C65.2,48.3 74.9,60.1 74.9,74.1 C74.9,88.1 65.3,99.9 52.2,103.1 C48.5,104 44.9,101.2 44.9,97.4 L44.9,50.8 Z" id="Path"></path>
            <circle id="Oval" cx="59.9" cy="15" r="15"></circle>
            <circle id="Oval" cx="15" cy="88.4" r="15"></circle>
        </g>
    </g>
</svg>