<?xml version="1.0" encoding="UTF-8"?>
<svg width="598px" height="826px" viewBox="0 0 598 826" version="1.1" xmlns="http://www.w3.org/2000/svg" xmlns:xlink="http://www.w3.org/1999/xlink">
    <!-- Generator: Sketch 52.5 (67469) - http://www.bohemiancoding.com/sketch -->
    <title>Group</title>
    <desc>Created with Sketch.</desc>
    <g id="Version2" stroke="none" stroke-width="1" fill="none" fill-rule="evenodd">
        <g id="Group" fill="#FFFFFF">
            <path d="M239.3,419.9 C239.3,450.3 210.8,473 181.3,465.6 C77.3,439.7 0.3,345.7 0.3,233.7 C0.3,121.7 77.3,27.7 181.3,1.8 C210.8,-5.5 239.3,17.1 239.3,47.5 L239.3,419.9 Z" id="Path"></path>
            <path d="M358.7,406.1 C358.7,375.7 387.2,353 416.7,360.4 C520.7,386.3 597.7,480.3 597.7,592.3 C597.7,704.3 520.7,798.3 416.7,824.2 C387.2,831.5 358.7,808.9 358.7,778.5 L358.7,406.1 Z" id="Path"></path>
            <circle id="Oval" cx="478.2" cy="120" r="119.5"></circle>
            <circle id="Oval" cx="119.8" cy="706" r="119.5"></circle>
        </g>
    </g>
</svg>