<?xml version="1.0" encoding="utf-8"?>
<!-- Generator: Adobe Illustrator 22.1.0, SVG Export Plug-In . SVG Version: 6.00 Build 0)  -->
<svg version="1.1" id="Layer_1" xmlns="http://www.w3.org/2000/svg" xmlns:xlink="http://www.w3.org/1999/xlink" x="0px" y="0px"
	 viewBox="0 0 436.5 103.3" style="enable-background:new 0 0 436.5 103.3;" xml:space="preserve">
<style type="text/css">
	.st0{fill:#669DFF;}
</style>
<g>
	<g>
		<path class="st0" d="M88.1,73.4l4.3-6.1c1-1.4,3-1.7,4.4-0.6c2,1.7,4.4,3.2,6.9,4.4c3.6,1.7,7.6,2.5,11.9,2.5
			c3.7,0,6.6-0.7,8.6-2.1c2-1.4,3-3.2,3-5.3c0-1.4-0.6-2.6-1.7-3.6c-1.1-1-2.6-1.8-4.4-2.3c-1.8-0.5-3.8-1.1-6.1-1.7s-4.6-1.2-7-1.8
			c-2.4-0.5-4.8-1.3-7.1-2.4c-2.3-1-4.3-2.2-6.1-3.6c-1.8-1.4-3.2-3.2-4.3-5.5c-1.1-2.3-1.7-5-1.7-8c0-5.7,2.3-10.5,6.9-14.4
			c4.6-3.9,10.7-5.8,18.4-5.8c9.5,0,17.4,2.4,23.7,7.3c1.3,1,1.5,2.8,0.5,4.1l-4.3,5.8c-1,1.3-2.8,1.6-4.2,0.7
			c-2.1-1.5-4.3-2.7-6.7-3.6c-3.4-1.2-6.8-1.8-10.3-1.8c-3,0-5.3,0.6-6.9,1.8c-1.7,1.2-2.5,2.8-2.5,4.8c0,1.2,0.5,2.3,1.6,3.2
			c1.1,0.9,2.6,1.6,4.4,2.1c1.8,0.5,3.9,1,6.2,1.6c2.3,0.6,4.6,1.1,7,1.7c2.4,0.6,4.7,1.4,7,2.5c2.3,1.1,4.3,2.3,6.1,3.7
			c1.8,1.4,3.2,3.3,4.3,5.6c1.1,2.3,1.6,5,1.6,8c0,6.4-2.3,11.5-6.8,15.5c-4.6,3.9-11.1,5.9-19.7,5.9c-10.8,0-19.6-2.9-26.4-8.7
			C87.4,76.4,87.2,74.7,88.1,73.4z"/>
		<path class="st0" d="M146.7,73.4c-2-3.8-3-8-3-12.7c0-4.6,1-8.8,3-12.6c2-3.8,4.9-6.9,8.9-9.2c3.9-2.3,8.4-3.5,13.6-3.5
			c5.2,0,9.7,1.2,13.6,3.5c3.9,2.3,6.9,5.4,8.9,9.2c2,3.8,3,8,3,12.6c0,4.6-1,8.8-3,12.7c-2,3.8-5,6.9-8.9,9.3s-8.5,3.5-13.6,3.5
			c-5.1,0-9.6-1.2-13.6-3.5C151.7,80.3,148.7,77.2,146.7,73.4z M156.8,60.7c0,4,1.1,7.3,3.3,10c2.2,2.7,5.2,4.1,9,4.1
			c3.8,0,6.9-1.4,9.1-4.1c2.2-2.7,3.3-6.1,3.3-10.1c0-3.9-1.1-7.3-3.3-9.9s-5.3-4-9.1-4c-3.8,0-6.8,1.3-9,4
			C157.9,53.4,156.8,56.7,156.8,60.7z"/>
		<path class="st0" d="M197.2,60.7c0-7.4,2.4-13.5,7.2-18.2c4.8-4.7,10.9-7.1,18.4-7.1c7.2,0,12.9,2.1,17.1,6.4
			c1.2,1.2,1.1,3.1-0.1,4.3l-3.9,3.7c-1.1,1.1-2.9,1.1-4.1,0c-2.2-2-5-3.1-8.4-3.1c-3.9,0-7,1.3-9.4,3.9c-2.4,2.6-3.6,5.9-3.6,10.1
			c0,4.2,1.2,7.6,3.6,10.2c2.4,2.6,5.6,3.9,9.4,3.9c3.4,0,6.2-1.1,8.4-3.2c1.1-1.1,2.9-1,4.1,0l3.9,3.7c1.2,1.2,1.3,3.1,0.1,4.3
			c-1.5,1.5-3.4,2.8-5.5,4c-3.2,1.7-7,2.5-11.6,2.5c-7.4,0-13.5-2.4-18.4-7.2C199.6,74.2,197.2,68.1,197.2,60.7z"/>
		<path class="st0" d="M245.1,29.2c-1.5-1.5-2.2-3.3-2.2-5.3c0-2.1,0.7-3.9,2.2-5.3c1.5-1.5,3.2-2.2,5.3-2.2c2.1,0,3.9,0.7,5.4,2.2
			c1.5,1.5,2.2,3.2,2.2,5.3c0,2.1-0.7,3.9-2.2,5.3c-1.5,1.5-3.3,2.2-5.4,2.2C248.4,31.4,246.6,30.6,245.1,29.2z M244.1,81.9V39.6
			c0-1.7,1.3-3,3-3h6.7c1.7,0,3,1.3,3,3v42.3c0,1.7-1.3,3-3,3h-6.7C245.5,84.9,244.1,83.6,244.1,81.9z"/>
		<path class="st0" d="M263.4,73.4c-2-3.8-3-8-3-12.7c0-4.6,1-8.8,3-12.6c2-3.8,4.9-6.9,8.9-9.2c3.9-2.3,8.4-3.5,13.6-3.5
			c5.2,0,9.7,1.2,13.6,3.5c3.9,2.3,6.9,5.4,8.9,9.2c2,3.8,3,8,3,12.6c0,4.6-1,8.8-3,12.7c-2,3.8-5,6.9-8.9,9.3s-8.5,3.5-13.6,3.5
			c-5.1,0-9.6-1.2-13.6-3.5C268.3,80.3,265.3,77.2,263.4,73.4z M273.4,60.7c0,4,1.1,7.3,3.3,10c2.2,2.7,5.2,4.1,9,4.1
			c3.8,0,6.9-1.4,9.1-4.1c2.2-2.7,3.3-6.1,3.3-10.1c0-3.9-1.1-7.3-3.3-9.9s-5.3-4-9.1-4c-3.8,0-6.8,1.3-9,4
			C274.5,53.4,273.4,56.7,273.4,60.7z"/>
		<path class="st0" d="M315.2,81.9V21.2c0-1.7,1.3-3,3-3h23.3c10.5,0,19,3.1,25.5,9.2c6.5,6.1,9.8,14.2,9.8,24.1
			c0,6.6-1.5,12.5-4.5,17.6s-7.1,9-12.5,11.7c-5.3,2.7-11.4,4.1-18.3,4.1h-23.4C316.5,84.9,315.2,83.6,315.2,81.9z M329.4,72.4h12.1
			c4.3,0,8-1,11.2-2.9c3.2-1.9,5.6-4.4,7.3-7.6s2.4-6.6,2.4-10.4c0-6.1-1.8-11.1-5.5-15c-3.6-3.9-8.8-5.8-15.3-5.8h-12.2V72.4z"/>
		<path class="st0" d="M381,81.9V21.2c0-1.7,1.3-3,3-3h32c3.1,0,5.8,0.5,8.3,1.4c2.5,0.9,4.5,2.2,6,3.8c1.5,1.6,2.7,3.4,3.6,5.4
			c0.8,2,1.2,4.2,1.2,6.4c0,4-1.1,7.4-3.2,10.1c-2.2,2.8-4.9,4.5-8.1,5.2c3.6,0.6,6.6,2.4,9,5.5c2.4,3.1,3.7,6.7,3.7,10.8
			c0,5.3-1.7,9.6-5.1,13c-3.4,3.4-8.1,5.1-14.3,5.1H384C382.3,84.9,381,83.6,381,81.9z M395.2,44.7H413c2.4,0,4.3-0.6,5.7-1.9
			c1.4-1.3,2.1-3,2.1-5.1c0-2.1-0.7-3.8-2.1-5.1c-1.4-1.3-3.3-1.9-5.7-1.9h-17.8V44.7z M395.2,72.4h18.4c2.7,0,4.8-0.7,6.2-2
			c1.5-1.4,2.2-3.2,2.2-5.6c0-2.2-0.7-4-2.2-5.4c-1.5-1.4-3.6-2.1-6.2-2.1h-18.4V72.4z"/>
	</g>
	<g>
		<path class="st0" d="M29.9,52.5c0,3.8-3.6,6.6-7.3,5.7C9.6,55,0,43.3,0,29.2s9.6-25.8,22.7-29c3.7-0.9,7.3,1.9,7.3,5.7V52.5z"/>
		<path class="st0" d="M44.9,50.8c0-3.8,3.6-6.6,7.3-5.7c13,3.2,22.7,15,22.7,29s-9.6,25.8-22.7,29c-3.7,0.9-7.3-1.9-7.3-5.7V50.8z"
			/>
		<circle class="st0" cx="59.9" cy="15" r="15"/>
		<circle class="st0" cx="15" cy="88.4" r="15"/>
	</g>
</g>
</svg>
