<?xml version="1.0" encoding="UTF-8"?>
<svg width="13px" height="13px" viewBox="0 0 13 13" version="1.1" xmlns="http://www.w3.org/2000/svg" xmlns:xlink="http://www.w3.org/1999/xlink">
    <!-- Generator: Sketch 53.2 (72643) - https://sketchapp.com -->
    <title>internet@2x</title>
    <desc>Created with Sketch.</desc>
    <g id="Version2" stroke="none" stroke-width="1" fill="none" fill-rule="evenodd">
        <g id="member-profile-web-links" transform="translate(-567.000000, -585.000000)">
            <g id="internet" transform="translate(567.000000, 585.000000)">
                <path d="M6.5,0 C2.9101448,0 0,2.9101302 0,6.5 C0,10.0898698 2.9101448,13 6.5,13 C7.94146075,13 9.27305035,12.5304886 10.350961,11.7364635 C10.2936335,11.7326047 10.2376804,11.7074693 10.196264,11.6612159 L9.13164775,10.4714734 L8.55829325,11.351424 L8.08489849,8.95967519 L10.519587,9.71704117 L9.47159546,10.1672847 L10.5362117,11.3570801 C10.5856101,11.4122141 10.6023669,11.4846073 10.5893896,11.5520843 C12.0598445,10.3604124 13,8.54014386 13,6.49997357 C13,2.9101302 10.0898552,0 6.5,0 Z" id="Path" fill="#CCCCCC"></path>
                <g id="Group" transform="translate(1.625000, 5.399194)" fill="#FFFFFF">
                    <polygon id="Path" points="0.814908814 1.54603456 0.874477013 1.87805069 0.881081026 1.8802765 0.953910084 1.54603456 1.43494641 0.0143087558 1.76593955 0.0143087558 2.24700229 1.54603456 2.32424282 1.909053 2.33084684 1.909053 2.40586843 1.54603456 2.7920447 0.0143087558 3.19808585 0.0143087558 2.50519279 2.409303 2.17417323 2.409303 1.70195987 0.932904378 1.59825044 0.505682028 1.59164643 0.505682028 1.49234849 0.932904378 1.02895809 2.409303 0.695745999 2.409303 0.00285293371 0.0143087558 0.411086614 0.0143087558"></polygon>
                    <polygon id="Path" points="4.23525933 1.54603456 4.29482753 1.87805069 4.30143155 1.8802765 4.3742606 1.54603456 4.85529693 0.0143087558 5.18631648 0.0143087558 5.66737922 1.54603456 5.74456693 1.909053 5.75122377 1.909053 5.82624536 1.54603456 6.21242164 0.0143087558 6.61840996 0.0143087558 5.92554331 2.409303 5.59452375 2.409303 5.12228397 0.932904378 5.01857455 0.505682028 5.01197054 0.505682028 4.91264618 0.932904378 4.44925578 2.409303 4.11604369 2.409303 3.42315062 0.0143087558 3.8313843 0.0143087558"></polygon>
                    <polygon id="Path" points="7.65560986 1.54603456 7.71517805 1.87805069 7.72180848 1.8802765 7.79463754 1.54603456 8.27570028 0.0143087558 8.60669342 0.0143087558 9.08775616 1.54603456 9.16497028 1.909053 9.17160071 1.909053 9.2466223 1.54603456 9.63279858 0.0143087558 10.0388133 0.0143087558 9.34594666 2.409303 9.01495352 2.409303 8.54271374 0.932904378 8.43900432 0.505682028 8.43237389 0.505682028 8.33307595 0.932904378 7.86965913 2.409303 7.53647346 2.409303 6.84358039 0.0143087558 7.25181407 0.0143087558"></polygon>
                </g>
            </g>
        </g>
    </g>
</svg>