<?xml version="1.0" encoding="UTF-8"?>
<svg width="13px" height="13px" viewBox="0 0 13 13" version="1.1" xmlns="http://www.w3.org/2000/svg" xmlns:xlink="http://www.w3.org/1999/xlink">
    <!-- Generator: Sketch 53.2 (72643) - https://sketchapp.com -->
    <title>LinkedIn_3_@2x</title>
    <desc>Created with Sketch.</desc>
    <g id="Version2" stroke="none" stroke-width="1" fill="none" fill-rule="evenodd">
        <g id="member-profile-web-links" transform="translate(-567.000000, -427.000000)" fill="#CCCCCC" fill-rule="nonzero">
            <path d="M579.75,434.470442 L579.75,439.183167 L577.016175,439.183167 L577.016175,434.783882 C577.016175,433.677815 576.621995,432.926091 575.632798,432.926091 C574.876301,432.926091 574.430045,433.435035 574.230835,433.924834 C574.159108,434.101219 574.137323,434.348239 574.137323,434.592085 L574.137323,439.182607 L571.406191,439.182607 C571.406191,439.182607 571.442855,431.734484 571.406191,430.963108 L574.137883,430.963108 L574.137883,432.128131 C574.134176,432.137704 574.126204,432.14565 574.122471,432.156289 L574.137883,432.156289 L574.137883,432.128131 C574.502839,431.568204 575.149372,430.770245 576.601277,430.770245 C578.403286,430.770271 579.75,431.944866 579.75,434.470442 Z M568.546457,427 C567.612002,427 567,427.613069 567,428.421641 C567,429.208429 567.59395,429.842216 568.511394,429.842216 L568.527872,429.842216 C569.483046,429.842216 570.074863,429.208429 570.074863,428.421641 C570.056278,427.613069 569.483072,427 568.546457,427 Z M567.163106,439.183141 L569.895331,439.183141 L569.895331,430.962602 L567.163106,430.962602 L567.163106,439.183141 Z" id="LinkedIn_3_"></path>
        </g>
    </g>
</svg>