<?xml version="1.0" encoding="UTF-8"?>
<svg width="7px" height="13px" viewBox="0 0 7 13" version="1.1" xmlns="http://www.w3.org/2000/svg" xmlns:xlink="http://www.w3.org/1999/xlink">
    <!-- Generator: Sketch 53.2 (72643) - https://sketchapp.com -->
    <title>Path@2x</title>
    <desc>Created with Sketch.</desc>
    <g id="Version2" stroke="none" stroke-width="1" fill="none" fill-rule="evenodd">
        <g id="member-profile-web-links" transform="translate(-570.000000, -269.000000)" fill="#CCCCCC">
            <path d="M576.633719,269.002653 L574.98033,269 C573.122804,269 571.922389,270.231586 571.922389,272.137792 L571.922389,273.584525 L570.259979,273.584525 C570.116328,273.584525 570,273.700985 570,273.844637 L570,275.940787 C570,276.084439 570.11646,276.200766 570.259979,276.200766 L571.922389,276.200766 L571.922389,281.490021 C571.922389,281.633672 572.038716,281.75 572.182368,281.75 L574.351339,281.75 C574.494991,281.75 574.611318,281.63354 574.611318,281.490021 L574.611318,276.200766 L576.555062,276.200766 C576.698714,276.200766 576.815042,276.084439 576.815042,275.940787 L576.815838,273.844637 C576.815838,273.775662 576.788381,273.709606 576.739701,273.660794 C576.691021,273.611982 576.6247,273.584525 576.555725,273.584525 L574.611318,273.584525 L574.611318,272.358111 C574.611318,271.768648 574.751787,271.469406 575.519655,271.469406 L576.633454,271.469008 C576.776973,271.469008 576.893301,271.352548 576.893301,271.209029 L576.893301,269.262632 C576.893301,269.119246 576.777106,269.002918 576.633719,269.002653 Z" id="Path"></path>
        </g>
    </g>
</svg>