<?xml version="1.0" encoding="UTF-8"?>
<svg width="13px" height="11px" viewBox="0 0 13 11" version="1.1" xmlns="http://www.w3.org/2000/svg" xmlns:xlink="http://www.w3.org/1999/xlink">
    <!-- Generator: Sketch 53.2 (72643) - https://sketchapp.com -->
    <title>Path@2x</title>
    <desc>Created with Sketch.</desc>
    <g id="Version2" stroke="none" stroke-width="1" fill="none" fill-rule="evenodd">
        <g id="member-profile-web-links" transform="translate(-567.000000, -349.000000)" fill="#CCCCCC">
            <path d="M579.75,350.225356 C579.280728,350.433294 578.777207,350.574315 578.248164,350.637274 C578.788353,350.313794 579.201853,349.80071 579.397833,349.191209 C578.891124,349.490772 578.33181,349.708293 577.735851,349.82621 C577.258621,349.317105 576.579807,349 575.826889,349 C574.382429,349 573.211239,350.171189 573.211239,351.614858 C573.211239,351.819609 573.234344,352.019588 573.278969,352.210818 C571.105507,352.101651 569.178233,351.060337 567.888335,349.478022 C567.662855,349.863647 567.534584,350.312981 567.534584,350.792628 C567.534584,351.700109 567.996689,352.500818 568.697815,352.969277 C568.269169,352.954944 567.866022,352.837027 567.513084,352.641027 L567.513084,352.673694 C567.513084,353.940487 568.414981,354.997739 569.610858,355.238364 C569.391754,355.297323 569.160712,355.32999 568.921691,355.32999 C568.752795,355.32999 568.589461,355.31326 568.429315,355.281385 C568.762336,356.321116 569.727984,357.077201 570.87209,357.09793 C569.977359,357.799056 568.849191,358.215744 567.623834,358.215744 C567.412709,358.215744 567.20475,358.202994 567,358.17989 C568.157648,358.923245 569.532004,359.356663 571.009132,359.356663 C575.820556,359.356663 578.45056,355.371427 578.45056,351.915234 L578.44179,351.576629 C578.955665,351.210108 579.400229,350.749607 579.75,350.225356 Z" id="Path"></path>
        </g>
    </g>
</svg>