<?xml version="1.0" encoding="UTF-8"?>
<svg width="24px" height="24px" viewBox="0 0 24 24" version="1.1" xmlns="http://www.w3.org/2000/svg" xmlns:xlink="http://www.w3.org/1999/xlink">
    <!-- Generator: Sketch 52.5 (67469) - http://www.bohemiancoding.com/sketch -->
    <title>calendar</title>
    <desc>Created with Sketch.</desc>
    <g id="Version2" stroke="none" stroke-width="1" fill="none" fill-rule="evenodd">
        <g id="community-members" transform="translate(-710.000000, -427.000000)">
            <g id="calendar" transform="translate(710.000000, 427.000000)">
                <polygon id="Fill-110" fill="#FFFFFF" points="1.3312 22.5903158 22.5344 22.5903158 22.5344 3.50810526 1.3312 3.50810526"></polygon>
                <path d="M2.6016,21.3350526 L21.2608,21.3350526 L21.2608,4.76368421 L2.6016,4.76368421 L2.6016,21.3350526 Z M22.5344,23.8458947 L1.3312,23.8458947 C0.6272,23.8458947 0.0576,23.2837895 0.0576,22.5903158 L0.0576,3.50810526 C0.0576,2.81463158 0.6272,2.25284211 1.3312,2.25284211 L22.5344,2.25284211 C23.2352,2.25284211 23.8048,2.81463158 23.8048,3.50810526 L23.8048,22.5903158 C23.8048,23.2837895 23.2352,23.8458947 22.5344,23.8458947 Z" id="Fill-111" fill="#CCCCCC"></path>
                <path d="M4.7008,7.77663158 C3.9968,7.77663158 3.4208,7.21452632 3.4208,6.52105263 L3.4208,1.49936842 C3.4208,0.806210526 3.9968,0.244105263 4.7008,0.244105263 C5.4016,0.244105263 5.9808,0.806210526 5.9808,1.49936842 L5.9808,6.52105263 C5.9808,7.21452632 5.4016,7.77663158 4.7008,7.77663158" id="Fill-112" fill="#CCCCCC"></path>
                <path d="M9.5008,7.77663158 C8.7968,7.77663158 8.2208,7.21452632 8.2208,6.52105263 L8.2208,1.49936842 C8.2208,0.806210526 8.7968,0.244105263 9.5008,0.244105263 C10.2016,0.244105263 10.7808,0.806210526 10.7808,1.49936842 L10.7808,6.52105263 C10.7808,7.21452632 10.2016,7.77663158 9.5008,7.77663158" id="Fill-113" fill="#CCCCCC"></path>
                <path d="M13.9808,7.77663158 C13.2768,7.77663158 12.7008,7.21452632 12.7008,6.52105263 L12.7008,1.49936842 C12.7008,0.806210526 13.2768,0.244105263 13.9808,0.244105263 C14.6816,0.244105263 15.2608,0.806210526 15.2608,1.49936842 L15.2608,6.52105263 C15.2608,7.21452632 14.6816,7.77663158 13.9808,7.77663158" id="Fill-114" fill="#CCCCCC"></path>
                <path d="M18.4608,7.77663158 C17.7568,7.77663158 17.1808,7.21452632 17.1808,6.52105263 L17.1808,1.49936842 C17.1808,0.806210526 17.7568,0.244105263 18.4608,0.244105263 C19.1616,0.244105263 19.7408,0.806210526 19.7408,1.49936842 L19.7408,6.52105263 C19.7408,7.21452632 19.1616,7.77663158 18.4608,7.77663158" id="Fill-115" fill="#CCCCCC"></path>
                <path d="M18.0384,14.5632632 L5.824,14.5632632 C5.1232,14.5632632 4.5536,14.1514737 4.5536,13.458 C4.5536,12.7648421 5.1232,12.3527368 5.824,12.3527368 L18.0384,12.3527368 C18.7392,12.3527368 19.3088,12.7648421 19.3088,13.458 C19.3088,14.1514737 18.7392,14.5632632 18.0384,14.5632632" id="Fill-116" fill="#CCCCCC"></path>
                <path d="M18.0384,19.3001053 L5.824,19.3001053 C5.1232,19.3001053 4.5536,18.7304211 4.5536,18.0369474 C4.5536,17.3437895 5.1232,16.7737895 5.824,16.7737895 L18.0384,16.7737895 C18.7392,16.7737895 19.3088,17.3437895 19.3088,18.0369474 C19.3088,18.7304211 18.7392,19.3001053 18.0384,19.3001053" id="Fill-117" fill="#CCCCCC"></path>
            </g>
        </g>
    </g>
</svg>