<?xml version="1.0" encoding="UTF-8"?>
<svg width="23px" height="30px" viewBox="0 0 23 30" version="1.1" xmlns="http://www.w3.org/2000/svg" xmlns:xlink="http://www.w3.org/1999/xlink">
    <!-- Generator: Sketch 52.5 (67469) - http://www.bohemiancoding.com/sketch -->
    <title>location</title>
    <desc>Created with Sketch.</desc>
    <g id="Version2" stroke="none" stroke-width="1" fill="none" fill-rule="evenodd">
        <g id="organizations" transform="translate(-710.000000, -424.000000)" fill="#FFFFFF">
            <g id="location" transform="translate(710.000000, 424.000000)">
                <path d="M11.2481904,2.91244352 C6.6338266,2.91244352 2.87719157,6.71510563 2.87719157,11.3896691 C2.87719157,14.9651972 8.18642432,22.3983392 11.2481904,26.2559531 C14.3135757,22.3983392 19.6228084,14.9651972 19.6228084,11.3896691 C19.6228084,6.71510563 15.8661734,2.91244352 11.2481904,2.91244352 Z M11.2481904,30 C10.8283738,30 10.4266527,29.813164 10.1552196,29.4871169 C9.1129162,28.2525339 0,17.2402003 0,11.3896691 C0,5.10685065 5.0450378,0 11.2481904,0 C17.4549622,0 22.5,5.10685065 22.5,11.3896691 C22.5,17.2402003 13.3834647,28.2525339 12.3447804,29.4871169 C12.0733473,29.813164 11.6716262,30 11.2481904,30 Z" id="Fill-240"></path>
                <path d="M11.248123,8.98820164 C10.0017876,8.98820164 8.98444762,10.0017876 8.98444762,11.251877 C8.98444762,12.5019664 10.0017876,13.5155524 11.248123,13.5155524 C12.4982124,13.5155524 13.5155524,12.5019664 13.5155524,11.251877 C13.5155524,10.0017876 12.4982124,8.98820164 11.248123,8.98820164 Z M11.248123,16.5 C8.3537719,16.5 6,14.1462281 6,11.251877 C6,8.35752592 8.3537719,6 11.248123,6 C14.1462281,6 16.5,8.35752592 16.5,11.251877 C16.5,14.1462281 14.1462281,16.5 11.248123,16.5 Z" id="Fill-241"></path>
            </g>
        </g>
    </g>
</svg>