<?xml version="1.0" encoding="UTF-8"?>
<svg width="26px" height="30px" viewBox="0 0 26 30" version="1.1" xmlns="http://www.w3.org/2000/svg" xmlns:xlink="http://www.w3.org/1999/xlink">
    <!-- Generator: Sketch 52.5 (67469) - http://www.bohemiancoding.com/sketch -->
    <title>news&amp;blog</title>
    <desc>Created with Sketch.</desc>
    <g id="Version2" stroke="none" stroke-width="1" fill="none" fill-rule="evenodd">
        <g id="newsfeed&amp;blogs" transform="translate(-1145.000000, -47.000000)">
            <g id="news&amp;blog" transform="translate(1145.000000, 47.000000)">
                <polygon id="Fill-551-Copy" fill="#FFFFFF" points="1.6 28.2121622 24.0216 28.2121622 24.0216 1.62162162 1.6 1.62162162"></polygon>
                <path d="M3.1804,26.5945946 L22.4216,26.5945946 L22.4216,3.22297297 L3.1804,3.22297297 L3.1804,26.5945946 Z M24.012,29.8175676 L1.5904,29.8175676 C0.712,29.8175676 4.97379915e-14,29.0959459 4.97379915e-14,28.2040541 L4.97379915e-14,1.61351351 C4.97379915e-14,0.721621622 0.712,-3.41060513e-13 1.5904,-3.41060513e-13 L24.012,-3.41060513e-13 C24.8904,-3.41060513e-13 25.602,0.721621622 25.602,1.61351351 L25.602,28.2040541 C25.602,29.0959459 24.8904,29.8175676 24.012,29.8175676 Z" id="Fill-552-Copy" fill="#505A83"></path>
                <polygon id="Fill-553-Copy" fill="#FFFFFF" points="6.8 11.8459459 18.8856 11.8459459 18.8856 6.89189189 6.8 6.89189189"></polygon>
                <path d="M8.3804,10.2202703 L17.2852,10.2202703 L17.2852,8.49324324 L8.3804,8.49324324 L8.3804,10.2202703 Z M18.8756,13.4432432 L6.79,13.4432432 C5.9116,13.4432432 5.2,12.7216216 5.2,11.8337838 L5.2,6.87972973 C5.2,5.99189189 5.9116,5.27027027 6.79,5.27027027 L18.8756,5.27027027 C19.7536,5.27027027 20.4656,5.99189189 20.4656,6.87972973 L20.4656,11.8337838 C20.4656,12.7216216 19.7536,13.4432432 18.8756,13.4432432 Z" id="Fill-554-Copy" fill="#638EE1"></path>
                <path d="M18.8756,18.6283784 L6.79,18.6283784 C5.9116,18.6283784 5.2,17.9108108 5.2,17.0189189 C5.2,16.127027 5.9116,15.4054054 6.79,15.4054054 L18.8756,15.4054054 C19.7536,15.4054054 20.4656,16.127027 20.4656,17.0189189 C20.4656,17.9108108 19.7536,18.6283784 18.8756,18.6283784" id="Fill-555-Copy" fill="#638EE1"></path>
                <path d="M18.8756,23.8986486 L6.79,23.8986486 C5.9116,23.8986486 5.2,23.177027 5.2,22.2851351 C5.2,21.3972973 5.9116,20.6756757 6.79,20.6756757 L18.8756,20.6756757 C19.7536,20.6756757 20.4656,21.3972973 20.4656,22.2851351 C20.4656,23.177027 19.7536,23.8986486 18.8756,23.8986486" id="Fill-556-Copy" fill="#638EE1"></path>
            </g>
        </g>
    </g>
</svg>