<?xml version="1.0" encoding="UTF-8"?>
<svg width="30px" height="30px" viewBox="0 0 30 30" version="1.1" xmlns="http://www.w3.org/2000/svg" xmlns:xlink="http://www.w3.org/1999/xlink">
    <!-- Generator: Sketch 52.5 (67469) - http://www.bohemiancoding.com/sketch -->
    <title>twitter</title>
    <desc>Created with Sketch.</desc>
    <g id="Version2" stroke="none" stroke-width="1" fill="none" fill-rule="evenodd">
        <g id="organization-profile" transform="translate(-157.000000, -587.000000)">
            <g id="twitter" transform="translate(157.000000, 587.000000)">
                <circle id="Oval-Copy" fill="#00ABF0" cx="15" cy="15" r="15"></circle>
                <path d="M21.375,11.3503562 C20.9057284,11.558294 20.4022067,11.6993151 19.8731642,11.7622735 C20.4133526,11.4387938 20.8268533,10.9257096 21.0228328,10.3162086 C20.5161236,10.6157716 19.9568102,10.8332928 19.3608509,10.9512097 C18.8836209,10.4421047 18.2048073,10.125 17.4518894,10.125 C16.0074287,10.125 14.8362393,11.2961894 14.8362393,12.7398584 C14.8362393,12.9446088 14.8593435,13.1445883 14.9039686,13.3358177 C12.7305067,13.2266509 10.8032327,12.1853367 9.51333478,10.6030216 C9.28785525,10.9886472 9.15958421,11.4379813 9.15958421,11.9176279 C9.15958421,12.8251086 9.62168913,13.6258182 10.3228153,14.0942773 C9.89416874,14.079944 9.49102225,13.9620271 9.13808417,13.7660268 L9.13808417,13.7986935 C9.13808417,15.0654872 10.0399815,16.122739 11.2358584,16.3633644 C11.0167539,16.4223228 10.7857119,16.4549895 10.5466906,16.4549895 C10.3777945,16.4549895 10.2144609,16.4382603 10.0543148,16.4063853 C10.3873362,17.4461161 11.3529836,18.2022007 12.4970897,18.2229299 C11.602359,18.924056 10.4741905,19.3407442 9.24883435,19.3407442 C9.03770901,19.3407442 8.82975033,19.3279942 8.625,19.30489 C9.78264772,20.0482454 11.1570041,20.4816628 12.6341316,20.4816628 C17.4455561,20.4816628 20.0755604,16.4964271 20.0755604,13.0402339 L20.0667895,12.7016292 C20.5806654,12.3351078 21.0252286,11.874607 21.375,11.3503562 Z" id="Path" fill="#FFFFFF"></path>
            </g>
        </g>
    </g>
</svg>