<?xml version="1.0" encoding="UTF-8"?>
<svg width="30px" height="30px" viewBox="0 0 30 30" version="1.1" xmlns="http://www.w3.org/2000/svg" xmlns:xlink="http://www.w3.org/1999/xlink">
    <!-- Generator: Sketch 52.5 (67469) - http://www.bohemiancoding.com/sketch -->
    <title>www</title>
    <desc>Created with Sketch.</desc>
    <g id="Version2" stroke="none" stroke-width="1" fill="none" fill-rule="evenodd">
        <g id="organization-profile" transform="translate(-194.000000, -587.000000)">
            <g id="www" transform="translate(194.000000, 587.000000)">
                <circle id="Oval-Copy" fill="#FEBC4F" cx="15" cy="15" r="15"></circle>
                <g id="internet" transform="translate(9.000000, 9.000000)">
                    <path d="M6,0 C2.68628751,0 0,2.68627403 0,6 C0,9.31372597 2.68628751,12 6,12 C7.33057915,12 8.55973879,11.5666049 9.55473328,10.8336586 C9.50181556,10.8300966 9.45016651,10.8068947 9.41193597,10.7641993 L8.42921331,9.66597541 L7.899963,10.4782375 L7.46298322,8.27046941 L9.71038796,8.96957646 L8.74301119,9.38518591 L9.72573385,10.4834586 C9.77133238,10.5343515 9.78680026,10.601176 9.77482119,10.6634625 C11.1321642,9.5634576 12,7.88320972 12,5.9999756 C12,2.68627403 9.31371249,0 6,0 Z" id="Path" fill="#FFFFFF"></path>
                    <g id="Group" transform="translate(1.500000, 4.983871)" fill="#FEBC4F">
                        <polygon id="Path" points="0.75222352 1.42710883 0.80720955 1.73358525 0.813305563 1.73563984 0.880532385 1.42710883 1.32456591 0.0132080822 1.63009804 0.0132080822 2.07415596 1.42710883 2.14545491 1.76220276 2.15155093 1.76220276 2.22080163 1.42710883 2.57727203 0.0132080822 2.95207925 0.0132080822 2.31248565 2.223972 2.00692913 2.223972 1.57103988 0.861142503 1.4753081 0.46678341 1.46921209 0.46678341 1.37755245 0.861142503 0.949807468 2.223972 0.642227076 2.223972 0.00263347727 0.0132080822 0.379464567 0.0132080822"></polygon>
                        <polygon id="Path" points="3.90947015 1.42710883 3.96445618 1.73358525 3.9705522 1.73563984 4.03777902 1.42710883 4.48181255 0.0132080822 4.78736906 0.0132080822 5.23142697 1.42710883 5.30267717 1.76220276 5.30882195 1.76220276 5.37807264 1.42710883 5.73454305 0.0132080822 6.1093015 0.0132080822 5.46973228 2.223972 5.16417577 2.223972 4.72826213 0.861142503 4.63253035 0.46678341 4.62643434 0.46678341 4.53475032 0.861142503 4.10700533 2.223972 3.79942494 2.223972 3.15983134 0.0132080822 3.53666243 0.0132080822"></polygon>
                        <polygon id="Path" points="7.06671679 1.42710883 7.12170282 1.73358525 7.12782322 1.73563984 7.19505004 1.42710883 7.63910795 0.0132080822 7.94464008 0.0132080822 8.38869799 1.42710883 8.45997257 1.76220276 8.46609296 1.76220276 8.53534366 1.42710883 8.89181407 0.0132080822 9.2665969 0.0132080822 8.62702769 2.223972 8.32149555 2.223972 7.88558192 0.861142503 7.78985014 0.46678341 7.78372974 0.46678341 7.6920701 0.861142503 7.26430074 2.223972 6.95674473 2.223972 6.31715113 0.0132080822 6.69398222 0.0132080822"></polygon>
                    </g>
                </g>
            </g>
        </g>
    </g>
</svg>