<?xml version="1.0" encoding="UTF-8"?>
<svg width="58px" height="62px" viewBox="0 0 58 62" version="1.1" xmlns="http://www.w3.org/2000/svg" xmlns:xlink="http://www.w3.org/1999/xlink">
    <!-- Generator: Sketch 52.5 (67469) - http://www.bohemiancoding.com/sketch -->
    <title>schedule</title>
    <desc>Created with Sketch.</desc>
    <g id="Version2" stroke="none" stroke-width="1" fill="none" fill-rule="evenodd">
        <g id="faqs-copy" transform="translate(-116.000000, -694.000000)">
            <g id="schedule" transform="translate(116.000000, 694.000000)">
                <polygon id="Fill-212" fill="#AFB9D3" points="1.07556522 19.1741739 54.3049913 19.1741739 54.3049913 7.6065913 1.07556522 7.6065913"></polygon>
                <polygon id="Fill-213" fill="#9AA9CB" points="1.07556522 11.1357391 54.3049913 11.1357391 54.3049913 7.6065913 1.07556522 7.6065913"></polygon>
                <path d="M20.0556522,12.4242609 C20.0556522,14.9495478 18.0085739,16.9966261 15.4838261,16.9966261 C12.9590783,16.9966261 10.912,14.9495478 10.912,12.4242609 C10.912,9.90005217 12.9590783,7.85297391 15.4838261,7.85297391 C18.0085739,7.85297391 20.0556522,9.90005217 20.0556522,12.4242609" id="Fill-214" fill="#9AA9CB"></path>
                <path d="M44.5257043,12.4242609 C44.5257043,14.9495478 42.4786261,16.9966261 39.9533391,16.9966261 C37.4291304,16.9966261 35.3820522,14.9495478 35.3820522,12.4242609 C35.3820522,9.90005217 37.4291304,7.85297391 39.9533391,7.85297391 C42.4786261,7.85297391 44.5257043,9.90005217 44.5257043,12.4242609" id="Fill-215" fill="#9AA9CB"></path>
                <polygon id="Fill-216" fill="#FFFFFE" points="1.07556522 56.151513 54.3049913 56.151513 54.3049913 19.1741739 1.07556522 19.1741739"></polygon>
                <path d="M56.5386087,47.5550783 C56.5386087,54.9055826 50.5790609,60.8651304 43.2285565,60.8651304 C35.8780522,60.8651304 29.9185043,54.9055826 29.9185043,47.5550783 C29.9185043,40.2045739 35.8780522,34.2450261 43.2285565,34.2450261 C50.5790609,34.2450261 56.5386087,40.2045739 56.5386087,47.5550783" id="Fill-217" fill="#FAD8AF"></path>
                <path d="M45.8271652,47.5550783 C45.8271652,48.9897043 44.6637217,50.153687 43.2285565,50.153687 C41.7933913,50.153687 40.6299478,48.9897043 40.6299478,47.5550783 C40.6299478,46.119913 41.7933913,44.9564696 43.2285565,44.9564696 C44.6637217,44.9564696 45.8271652,46.119913 45.8271652,47.5550783" id="Fill-218" fill="#FFFFFE"></path>
                <polygon id="Fill-219" fill="#DEE9F1" points="1.07556522 21.8390957 54.3049913 21.8390957 54.3049913 19.1741739 1.07556522 19.1741739"></polygon>
                <path d="M51.3543304,36.9455304 C52.906487,39.122 53.8289391,41.7782957 53.8289391,44.6561739 C53.8289391,52.0066783 47.8699304,57.9662261 40.518887,57.9662261 C37.4814261,57.9662261 34.690887,56.9375652 32.4513391,55.2247478 C34.8650261,58.6094087 38.8130783,60.8236174 43.2867826,60.8236174 C50.6378261,60.8236174 56.5962957,54.8646087 56.5962957,47.5135652 C56.5962957,43.1999826 54.5352,39.3770087 51.3543304,36.9455304" id="Fill-220" fill="#F6C79F"></path>
                <polygon id="Fill-221" fill="#C7DBE8" points="8.41205217 30.1249913 13.2965739 30.1249913 13.2965739 25.2410087 8.41205217 25.2410087"></polygon>
                <polygon id="Fill-222" fill="#C7DBE8" points="8.41205217 39.9829913 13.2965739 39.9829913 13.2965739 35.0990087 8.41205217 35.0990087"></polygon>
                <polygon id="Fill-223" fill="#C7DBE8" points="19.1024696 39.9829913 23.9869913 39.9829913 23.9869913 35.0990087 19.1024696 35.0990087"></polygon>
                <polygon id="Fill-224" fill="#C7DBE8" points="8.41205217 49.8415304 13.2965739 49.8415304 13.2965739 44.9564696 8.41205217 44.9564696"></polygon>
                <polygon id="Fill-225" fill="#C7DBE8" points="19.1024696 49.8415304 23.9869913 49.8415304 23.9869913 44.9564696 19.1024696 44.9564696"></polygon>
                <polygon id="Fill-226" fill="#C7DBE8" points="29.7934261 30.1249913 34.6779478 30.1249913 34.6779478 25.2410087 29.7934261 25.2410087"></polygon>
                <polygon id="Fill-227" fill="#C7DBE8" points="40.4843826 30.1249913 45.3689043 30.1249913 45.3689043 25.2410087 40.4843826 25.2410087"></polygon>
                <polygon id="Fill-228" fill="#FAD8AF" points="19.1024696 30.1249913 23.9869913 30.1249913 23.9869913 25.2410087 19.1024696 25.2410087"></polygon>
                <path d="M15.4838261,13.9305913 C14.1785913,13.9305913 13.1197391,12.8722783 13.1197391,11.5665043 L13.1197391,3.53022609 C13.1197391,2.22445217 14.1785913,1.16613913 15.4838261,1.16613913 C16.7890609,1.16613913 17.8473739,2.22445217 17.8473739,3.53022609 L17.8473739,11.5665043 C17.8473739,12.8722783 16.7890609,13.9305913 15.4838261,13.9305913" id="Fill-229" fill="#C7DBE8"></path>
                <path d="M43.2285565,34.9189391 C36.2613739,34.9189391 30.5924174,40.5873565 30.5924174,47.5550783 C30.5924174,54.5228 36.2613739,60.1912174 43.2285565,60.1912174 C50.1962783,60.1912174 55.8646957,54.5228 55.8646957,47.5550783 C55.8646957,40.5873565 50.1962783,34.9189391 43.2285565,34.9189391 Z M43.2285565,61.5390435 C35.517913,61.5390435 29.2445913,55.2657217 29.2445913,47.5550783 C29.2445913,39.8444348 35.517913,33.571113 43.2285565,33.571113 C50.9392,33.571113 57.2125217,39.8444348 57.2125217,47.5550783 C57.2125217,55.2657217 50.9392,61.5390435 43.2285565,61.5390435 Z" id="Fill-230" fill="#515E84"></path>
                <polyline id="Fill-231" fill="#515E84" points="54.9789043 39.9824522 53.6310783 39.9824522 53.6310783 8.33118261 42.0985391 8.33118261 42.0985391 6.98335652 54.9789043 6.98335652 54.9789043 39.9824522"></polyline>
                <polygon id="Fill-232" fill="#515E84" points="18.0986087 8.33118261 37.2819478 8.33118261 37.2819478 6.98335652 18.0986087 6.98335652"></polygon>
                <polyline id="Fill-233" fill="#515E84" points="33.2395478 56.8254261 0.401652174 56.8254261 0.401652174 6.98335652 12.8690435 6.98335652 12.8690435 8.33118261 1.74947826 8.33118261 1.74947826 55.4776 33.2395478 55.4776 33.2395478 56.8254261"></polyline>
                <path d="M15.4838261,1.84005217 C14.5516696,1.84005217 13.7936522,2.5986087 13.7936522,3.53022609 L13.7936522,11.5665043 C13.7936522,12.4986609 14.5516696,13.2566783 15.4838261,13.2566783 C16.4154435,13.2566783 17.1734609,12.4986609 17.1734609,11.5665043 L17.1734609,3.53022609 C17.1734609,2.5986087 16.4154435,1.84005217 15.4838261,1.84005217 Z M15.4838261,14.6045043 C13.8082087,14.6045043 12.4458261,13.2421217 12.4458261,11.5665043 L12.4458261,3.53022609 C12.4458261,1.85514783 13.8082087,0.492226087 15.4838261,0.492226087 C17.1589043,0.492226087 18.521287,1.85514783 18.521287,3.53022609 L18.521287,11.5665043 C18.521287,13.2421217 17.1589043,14.6045043 15.4838261,14.6045043 Z" id="Fill-234" fill="#515E84"></path>
                <path d="M39.9533391,13.9305913 C38.6481043,13.9305913 37.5892522,12.8722783 37.5892522,11.5665043 L37.5892522,3.53022609 C37.5892522,2.22445217 38.6481043,1.16613913 39.9533391,1.16613913 C41.259113,1.16613913 42.3174261,2.22445217 42.3174261,3.53022609 L42.3174261,11.5665043 C42.3174261,12.8722783 41.259113,13.9305913 39.9533391,13.9305913" id="Fill-235" fill="#C7DBE8"></path>
                <path d="M39.9533391,1.84005217 C39.0217217,1.84005217 38.2631652,2.5986087 38.2631652,3.53022609 L38.2631652,11.5665043 C38.2631652,12.4986609 39.0217217,13.2566783 39.9533391,13.2566783 C40.8854957,13.2566783 41.643513,12.4986609 41.643513,11.5665043 L41.643513,3.53022609 C41.643513,2.5986087 40.8854957,1.84005217 39.9533391,1.84005217 Z M39.9533391,14.6045043 C38.2782609,14.6045043 36.9153391,13.2421217 36.9153391,11.5665043 L36.9153391,3.53022609 C36.9153391,1.85514783 38.2782609,0.492226087 39.9533391,0.492226087 C41.6289565,0.492226087 42.9913391,1.85514783 42.9913391,3.53022609 L42.9913391,11.5665043 C42.9913391,13.2421217 41.6289565,14.6045043 39.9533391,14.6045043 Z" id="Fill-236" fill="#515E84"></path>
                <path d="M9.08596522,29.4510783 L12.6226609,29.4510783 L12.6226609,25.9149217 L9.08596522,25.9149217 L9.08596522,29.4510783 Z M7.73813913,30.7989043 L13.970487,30.7989043 L13.970487,24.5670957 L7.73813913,24.5670957 L7.73813913,30.7989043 Z" id="Fill-237" fill="#515E84"></path>
                <path d="M19.7763826,29.4510783 L23.3130783,29.4510783 L23.3130783,25.9149217 L19.7763826,25.9149217 L19.7763826,29.4510783 Z M18.4285565,30.7989043 L24.6609043,30.7989043 L24.6609043,24.5670957 L18.4285565,24.5670957 L18.4285565,30.7989043 Z" id="Fill-238" fill="#515E84"></path>
                <path d="M9.08596522,39.3090783 L12.6226609,39.3090783 L12.6226609,35.7729217 L9.08596522,35.7729217 L9.08596522,39.3090783 Z M7.73813913,40.6569043 L13.970487,40.6569043 L13.970487,34.4250957 L7.73813913,34.4250957 L7.73813913,40.6569043 Z" id="Fill-239" fill="#515E84"></path>
                <path d="M19.7763826,39.3090783 L23.3130783,39.3090783 L23.3130783,35.7729217 L19.7763826,35.7729217 L19.7763826,39.3090783 Z M18.4285565,40.6569043 L24.6609043,40.6569043 L24.6609043,34.4250957 L18.4285565,34.4250957 L18.4285565,40.6569043 Z" id="Fill-240" fill="#515E84"></path>
                <path d="M9.08596522,49.1676174 L12.6226609,49.1676174 L12.6226609,45.6303826 L9.08596522,45.6303826 L9.08596522,49.1676174 Z M7.73813913,50.5154435 L13.970487,50.5154435 L13.970487,44.2825565 L7.73813913,44.2825565 L7.73813913,50.5154435 Z" id="Fill-241" fill="#515E84"></path>
                <path d="M19.7763826,49.1676174 L23.3130783,49.1676174 L23.3130783,45.6303826 L19.7763826,45.6303826 L19.7763826,49.1676174 Z M18.4285565,50.5154435 L24.6609043,50.5154435 L24.6609043,44.2825565 L18.4285565,44.2825565 L18.4285565,50.5154435 Z" id="Fill-242" fill="#515E84"></path>
                <path d="M30.4673391,29.4510783 L34.0040348,29.4510783 L34.0040348,25.9149217 L30.4673391,25.9149217 L30.4673391,29.4510783 Z M29.119513,30.7989043 L35.3518609,30.7989043 L35.3518609,24.5670957 L29.119513,24.5670957 L29.119513,30.7989043 Z" id="Fill-243" fill="#515E84"></path>
                <path d="M41.1582957,29.4510783 L44.6949913,29.4510783 L44.6949913,25.9149217 L41.1582957,25.9149217 L41.1582957,29.4510783 Z M39.8104696,30.7989043 L46.0428174,30.7989043 L46.0428174,24.5670957 L39.8104696,24.5670957 L39.8104696,30.7989043 Z" id="Fill-244" fill="#515E84"></path>
                <polygon id="Fill-245" fill="#515E84" points="1.07556522 19.848087 54.3049913 19.848087 54.3049913 18.5002609 1.07556522 18.5002609"></polygon>
                <path d="M43.2285565,45.6303826 C42.1675478,45.6303826 41.3038609,46.4940696 41.3038609,47.5550783 C41.3038609,48.616087 42.1675478,49.4797739 43.2285565,49.4797739 C44.2895652,49.4797739 45.1532522,48.616087 45.1532522,47.5550783 C45.1532522,46.4940696 44.2895652,45.6303826 43.2285565,45.6303826 Z M43.2285565,50.8276 C41.424087,50.8276 39.9560348,49.3595478 39.9560348,47.5550783 C39.9560348,45.7506087 41.424087,44.2825565 43.2285565,44.2825565 C45.0330261,44.2825565 46.5010783,45.7506087 46.5010783,47.5550783 C46.5010783,49.3595478 45.0330261,50.8276 43.2285565,50.8276 Z" id="Fill-246" fill="#515E84"></path>
                <polygon id="Fill-247" fill="#515E84" points="42.5546435 44.9564696 43.9024696 44.9564696 43.9024696 38.2103304 42.5546435 38.2103304"></polygon>
                <polygon id="Fill-248" fill="#515E84" points="45.8271652 48.2289913 53.6035826 48.2289913 53.6035826 46.8811652 45.8271652 46.8811652"></polygon>
                <path d="M34.3091826,46.4725043 L32.9710609,46.3129217 C33.0330609,45.7942783 33.1360348,45.276713 33.2756696,44.7747826 L33.4853913,44.0976348 L34.7722957,44.4965913 L34.5679652,45.1548696 C34.4525913,45.5726957 34.3636348,46.0223304 34.3091826,46.4725043 Z M33.4379478,50.8626435 C33.1926435,50.1358957 33.0287478,49.3789565 32.951113,48.6128522 L34.2913913,48.475913 C34.3593217,49.1428174 34.5021913,49.8005565 34.7151478,50.4318783 L33.4379478,50.8626435 Z M35.8273739,54.7637913 C35.2909391,54.2133391 34.8154261,53.6025043 34.414313,52.9485391 L35.5632,52.2444348 C35.9120174,52.8126783 36.3260696,53.3442609 36.7929565,53.8235478 L35.8273739,54.7637913 Z M39.6654435,57.255113 C38.944087,56.9904 38.2518435,56.6442783 37.6065043,56.2242957 L38.3413391,55.0948174 C38.9014957,55.4587304 39.5037043,55.7601043 40.1296348,55.9908522 L39.6654435,57.255113 Z M46.4552522,57.3715652 L46.0358087,56.0911304 C46.6687478,55.8841043 47.2806609,55.6037565 47.8542957,55.2576348 L48.5497739,56.4129913 C47.8893391,56.8103304 47.1841565,57.1332696 46.4552522,57.3715652 Z M43.2285565,57.8864348 C42.7853913,57.8864348 42.3389913,57.8584 41.9022957,57.8023304 L42.0742783,56.465287 C42.7325565,56.5499304 43.4177913,56.560713 44.0771478,56.4997913 L44.2022261,57.8411478 C43.8814435,57.8713391 43.5541913,57.8864348 43.2285565,57.8864348 Z" id="Fill-249" fill="#515E84"></path>
            </g>
        </g>
    </g>
</svg>