<?xml version="1.0" encoding="UTF-8"?>
<svg width="78px" height="62px" viewBox="0 0 78 62" version="1.1" xmlns="http://www.w3.org/2000/svg" xmlns:xlink="http://www.w3.org/1999/xlink">
    <!-- Generator: Sketch 52.5 (67469) - http://www.bohemiancoding.com/sketch -->
    <title>discover connect</title>
    <desc>Created with Sketch.</desc>
    <g id="Version2" stroke="none" stroke-width="1" fill="none" fill-rule="evenodd">
        <g id="sign-in" transform="translate(-106.000000, -283.000000)">
            <g id="discover-connect" transform="translate(106.000000, 283.000000)">
                <path d="M22.4582459,35.1482474 C21.0139672,34.6266804 20.0517541,33.0690103 20.0517541,31.5343505 L20.0517541,30.055299 L19.8644262,30.0412371 C18.7225574,31.1418969 18.1158197,31.7682887 16.5539016,31.7849072 C14.9913443,31.7682887 14.3846066,31.1418969 13.2427377,30.0412371 L13.0554098,30.055299 C13.0554098,31.0517732 13.3808361,34.162 10.648918,35.1482474 C9.19760656,35.7171134 6.93688525,36.8599588 5.75409836,37.7816495 C9.59016393,46.0909278 14.9095082,51.8812165 22.1053279,56.0933814 C26.3563279,53.3257526 30.2358689,49.4619381 32.505541,44.8899175 C30.7371148,40.4482887 27.0263607,36.9379381 22.4582459,35.1482474" id="Fill-364-Copy" fill="#BEC3D8"></path>
                <path d="M74.9484098,38.4828247 C73.3532459,37.0791959 71.4953115,35.9440206 69.4666721,35.1495258 C68.0230328,34.6279588 67.0608197,33.0702887 67.0608197,31.5349897 L67.0608197,30.0565773 L66.8728525,30.0412371 C65.731623,31.1431753 65.1242459,31.7689278 63.5623279,31.7861856 C62.0004098,31.7689278 61.3930328,31.1431753 60.2511639,30.0412371 L60.0631967,30.0565773 L60.0631967,31.5349897 C60.0631967,33.0702887 59.1009836,34.6279588 57.6579836,35.1495258 L57.6573443,35.1495258 C51.9927541,37.3674639 48.2679344,42.5582062 47.3114754,48.5645361 C49.8183443,50.8355258 52.5470656,54.7287423 55.6012131,58.2173608 C64.4318361,54.2992165 71.4249836,47.517567 74.9484098,38.4828247" id="Fill-365-Copy" fill="#BEC3D8"></path>
                <path d="M12.6756393,30.4564727 C11.1968361,31.8236686 9.9897541,30.6597304 9.9897541,30.6597304 C9.55308197,31.1058747 8.9482623,31.3883902 8.27822951,31.4043696 C7.21691803,31.3788026 6.33078689,30.6821015 6.00280328,29.7265345 C4.37759016,29.5098541 3.34760656,27.7789675 4.10459016,26.2110706 C1.74732787,26.0576686 0.928327869,23.0075242 2.88855738,21.6914624 C1.62904918,21.5744933 0.639344262,20.5262459 0.639344262,19.235751 C0.639344262,18.2852974 1.18086885,17.4677923 1.96662295,17.0529675 C1.40016393,16.5985139 1.03062295,15.9082046 1.03062295,15.1258541 C1.03062295,13.6352974 2.34,12.5122665 3.69093443,12.6790912 L2.74790164,12.6790912 C0.930245902,10.6401222 3.32139344,7.53117371 5.69911475,8.89709123 C4.23245902,6.52063763 7.26167213,3.86614278 9.35168852,5.7823902 C9.29222951,3.35863763 12.4998197,2.20173041 13.8354098,4.4829469 C13.7132951,1.07678196 19.0070656,1.04801907 18.9002951,4.4829469 C20.2250164,2.21898814 23.4498689,3.35032835 23.3840164,5.7823902 C25.4785082,3.86166855 28.4981311,6.52702938 27.0359508,8.89709123 C28.7250984,7.92682319 30.6207541,9.25950361 30.6207541,11.03705 C30.6207541,11.6691943 30.3771639,12.2412562 29.9871639,12.6790912 C30.0683607,12.6695036 30.147,12.6509675 30.2307541,12.64905 C32.5196066,12.7033799 33.5291311,15.5969263 31.7114754,17.0529675 C32.4972295,17.4677923 33.0381148,18.2852974 33.0381148,19.235751 C33.0381148,20.5262459 32.0490492,21.5744933 30.789541,21.6914624 C32.7504098,23.0075242 31.9301311,26.0576686 29.5728689,26.2110706 C30.3298525,27.7776892 29.3011475,29.5098541 27.6746557,29.7265345 C27.1152295,31.3596273 25.0341639,32.0352356 23.6883443,30.6597304 C23.6883443,30.6597304 22.480623,31.8236686 21.002459,30.4564727 L12.6756393,30.4564727" id="Fill-366-Copy" fill="#FAD8AF"></path>
                <path d="M8.60483853,17.2034021 C10.0331336,16.3986804 9.78442869,15.7026186 9.38803525,14.5016082 C11.1187402,14.796268 12.455609,13.4271546 12.3641828,11.7659381 C13.4517074,13.1887423 15.4074615,13.2910103 16.6938221,12.126433 C17.6490025,14.0810309 20.5209369,13.6636495 20.8623467,11.5051546 C20.9863795,13.2660825 22.5169697,14.5962062 24.3601992,14.1705155 C24.2668549,14.3469278 23.9388713,15.6847216 24.7163139,17.0857938 L24.7163139,17.1989278 C24.9880352,19.5971134 26.1235107,24.8600825 21.9773631,29.4736495 L20.0855434,31.2780412 C19.1917402,32.130701 18.0031992,32.6062474 16.7679861,32.6062474 C15.5577074,32.6062474 14.3928221,32.1505155 13.5041336,31.3291753 L11.53815,29.5107216 C11.4134779,29.3764948 11.2907238,29.2390722 11.1724451,29.0990928 C7.27947787,24.5257938 8.42901886,19.3484742 8.60483853,17.2034021" id="Fill-367-Copy" fill="#FBE2DA"></path>
                <path d="M24.3833115,36.1274639 C21.8336066,35.5349485 20.493541,33.9184742 20.493541,32.6874227 L20.493541,29.4167629 L20.3055738,29.4020619 C19.1643443,30.5027216 18.5556885,31.1265567 16.9950492,31.1444536 C15.4350492,31.1265567 14.8257541,30.5027216 13.6838852,29.4020619 L13.495918,29.4167629 L13.495918,32.6874227 C13.8769672,34.0731546 11.7485902,35.0741031 10.2295082,36.5135258 C10.2295082,36.5135258 11.5874754,41.7381443 17.2239344,45.0017732 C23.3328689,41.7132165 24.3833115,36.1274639 24.3833115,36.1274639" id="Fill-368-Copy" fill="#FBE2DA"></path>
                <path d="M20.3944426,32.6982887 L20.3944426,31.4544536 C18.3785902,33.2518144 15.3532131,33.1770309 13.4262295,31.3195876 C13.4262295,31.7644536 13.4262295,31.729299 13.4262295,32.1735258 L13.7343934,32.4816082 C14.6959672,33.4429278 15.7195574,33.7043505 17.0794426,33.7043505 C18.1797541,33.7043505 19.5198197,33.3406598 20.3944426,32.6982887" id="Fill-369-Copy" fill="#F8D5CA"></path>
                <polyline id="Fill-370-Copy" fill="#F6CBC1" points="16.7783115 23.3561031 15.3442623 23.9716289 16.0321967 19.814433 16.6210328 19.8208247 16.7783115 23.3561031"></polyline>
                <path d="M19.3638197,20.2859293 L18.5409836,19.307352 C20.3663115,17.7739706 22.3975082,19.0005479 23.0368525,19.0005479 L23.0368525,20.2788984 C22.0375574,20.2788984 20.6246066,19.2261768 19.3638197,20.2859293" id="Fill-371-Copy" fill="#505A83"></path>
                <path d="M20.7350533,21.0211959 C19.5151845,21.0211959 19.5139058,19.1752577 20.7350533,19.1752577 C21.9549222,19.1752577 21.9562009,21.0211959 20.7350533,21.0211959" id="Fill-372-Copy" fill="#505A83"></path>
                <path d="M14.5412459,20.2859293 C13.2798197,19.2261768 11.8687869,20.2788984 10.8688525,20.2788984 L10.8688525,19.0005479 C11.5081967,19.0005479 13.5387541,17.7739706 15.364082,19.307352 L14.5412459,20.2859293" id="Fill-373-Copy" fill="#505A83"></path>
                <path d="M13.0634017,21.0211959 C14.2832706,21.0211959 14.2845492,19.1752577 13.0634017,19.1752577 C11.8428935,19.1752577 11.8416148,21.0211959 13.0634017,21.0211959" id="Fill-374-Copy" fill="#505A83"></path>
                <path d="M17.9125082,24.6143197 C17.4713607,24.1637011 16.6990328,24.1630619 16.2585246,24.6136805 L15.3442623,23.7201135 C16.2687541,22.7741341 17.899082,22.7734949 18.8261311,23.7194743 L17.9125082,24.6143197" id="Fill-375-Copy" fill="#505A83"></path>
                <path d="M15.3442623,28.432433 L16.2022623,27.4845361 C16.5718033,27.8188247 17.1779016,27.827134 17.5544754,27.5037113 L18.387541,28.4739794 C17.5084426,29.227567 16.2048197,29.2103093 15.3442623,28.432433" id="Fill-376-Copy" fill="#505A83"></path>
                <path d="M14.0655738,27.6698969 L14.3769344,26.4305361 C14.9919836,26.5852165 15.4721311,26.0201856 15.8691639,25.569567 L16.9362295,26.1352371 L18.0352623,25.5670103 C18.4214262,26.0304124 18.8728033,26.5992784 19.4846557,26.4215876 L19.8465246,27.6475258 C19.009623,27.8936082 18.2513607,27.5407835 17.761623,27.1476907 L16.9285574,27.5784948 L16.1095574,27.1438557 C15.5098525,27.6072577 14.7944262,27.8533402 14.0655738,27.6698969" id="Fill-377-Copy" fill="#505A83"></path>
                <path d="M26.2131148,53.7993814 L24.9344262,53.7993814 C24.9344262,51.1627835 26.9426066,49.1813402 25.9637705,46.452701 L27.1676557,46.0206186 C28.3242295,49.2458969 26.2131148,51.507299 26.2131148,53.7993814" id="Fill-378-Copy" fill="#505A83"></path>
                <path d="M6.53218033,38.9014845 L5.75409836,37.8877526 C9.2372459,35.2140825 13.6864426,34.679732 12.9563115,31.6116907 L14.2011148,31.3195876 C15.1825082,35.5707423 9.96865574,36.2674433 6.53218033,38.9014845" id="Fill-379-Copy" fill="#505A83"></path>
                <path d="M31.8862482,46.0289278 C30.2009367,40.708433 26.7056416,38.6496495 23.8970023,36.9954639 C21.6995761,35.701134 19.3039531,34.4854227 19.9170843,30.6804124 L21.1791498,30.8811134 L20.548117,30.7807629 L21.1797892,30.8798351 C21.1759531,30.9002887 20.8645924,33.0076495 21.9239859,34.0904124 C24.1028711,36.3185773 30.571117,37.6423093 33.1054777,45.6435052 L31.8862482,46.0289278" id="Fill-380-Copy" fill="#505A83"></path>
                <path d="M17.2143443,45.6767423 C12.8693607,43.4357938 10.2768197,39.4761031 9.59016393,36.0430928 L10.8445574,35.7938144 C10.8554262,35.8500619 12.0196721,41.3718969 17.200918,44.2264536 C18.328082,43.5521237 22.4492951,40.821567 23.6480656,36.3415876 L24.8832787,36.6720412 C23.8321967,40.5997732 20.5606721,43.9266804 17.2143443,45.6767423" id="Fill-381-Copy" fill="#505A83"></path>
                <path d="M23.454401,31.4702831 C22.73386,31.8614584 21.5664174,32.0346749 20.3714829,30.9295409 L21.2397124,29.9905924 C22.247319,30.9218707 22.9691387,30.2801388 23.0484174,30.2034378 C23.3015977,29.959912 23.7043846,29.9663037 23.9492534,30.2168604 C24.2861879,30.5613759 24.7369256,30.7582419 25.2189911,30.7691079 C25.9472042,30.751211 26.6242698,30.2507367 26.8736141,29.5233553 C26.9522534,29.2945305 27.1536469,29.1289841 27.3940403,29.0970254 C28.3044665,28.9755821 28.9911223,28.1970666 28.9911223,27.2862419 C28.9911223,27.020345 28.9271879,26.7538089 28.801237,26.4936646 C28.7085321,26.301912 28.7174829,26.0769223 28.8242534,25.8928398 C28.9316633,25.7093965 29.1228272,25.5911491 29.3350895,25.5770872 C30.2985813,25.5138089 31.0542862,24.7122831 31.0542862,23.7509635 C31.0542862,23.1405512 30.7486797,22.5697677 30.2365649,22.2258914 C30.0115157,22.075046 29.9066633,21.7995615 29.9737944,21.5374996 C30.0402862,21.2754378 30.2646961,21.0836852 30.53386,21.0587573 C31.4852042,20.9705512 32.2025485,20.1882006 32.2025485,19.2396646 C32.2025485,18.562778 31.8240567,17.9434171 31.2160403,17.621912 C31.0255157,17.5215615 30.8982862,17.3317264 30.8784665,17.1176027 C30.8573682,16.903479 30.946237,16.6931903 31.1143846,16.5583244 C31.5574502,16.2029429 31.8119092,15.6826543 31.8119092,15.1297677 C31.8119092,14.1403244 31.0069747,13.3157883 30.0185485,13.2921388 C30.0217452,13.292778 29.9968108,13.2985305 29.9718764,13.3023656 L29.868942,13.3170666 C29.2743518,13.3860976 28.9265485,12.6919532 29.3127124,12.2579532 C29.6176797,11.9166336 29.7851879,11.483912 29.7851879,11.0409635 C29.7851879,10.0508811 28.9802534,9.22634497 27.9918272,9.20333467 C27.727778,9.21036559 27.4375157,9.29473673 27.1587616,9.45516972 C26.9055813,9.6002625 26.5852698,9.55679858 26.381319,9.34650992 C26.1773682,9.13622126 26.1415649,8.81471611 26.2956469,8.56607693 C26.4772206,8.27205631 26.5724829,7.93968518 26.5724829,7.6060357 C26.5724829,6.16149961 24.8564829,5.12283982 23.6193518,6.25801508 C23.4313846,6.42867487 23.1596633,6.47341714 22.9301387,6.3711491 C22.6980567,6.26952023 22.5478108,6.04005631 22.5478108,5.78630374 C22.5478108,5.75690168 22.5522862,5.70001508 22.5567616,5.67189137 C22.5497288,4.03688106 20.2551223,3.09985013 19.2551879,4.80964394 C19.10686,5.06275735 18.8025321,5.18164394 18.5231387,5.10046869 C18.2418272,5.0173759 18.0525813,4.7540357 18.0647288,4.46065425 C18.0653682,4.44083982 18.0711223,4.379479 18.0736797,4.35966456 C18.072401,3.40665425 17.2681059,2.58211817 16.2796797,2.55846869 L16.2093518,2.56294291 C16.1831387,2.56422126 16.1575649,2.56422126 16.1313518,2.56294291 L16.0380075,2.55846869 C15.0745157,2.58211817 14.2695813,3.40665425 14.2695813,4.39545838 C14.2721387,4.39609755 14.2759747,4.42166456 14.2778928,4.46065425 C14.289401,4.7540357 14.1001551,5.0173759 13.8188436,5.10046869 C13.5394502,5.18420064 13.2357616,5.06339652 13.0874338,4.80964394 C12.7607288,4.25164394 12.1865977,3.90968518 11.5523682,3.89434497 C10.5939911,3.91735528 9.78905671,4.74189137 9.78905671,5.73133467 C9.78905671,5.98508724 9.64200753,6.2420357 9.40992556,6.34366456 C9.17784359,6.4459326 8.90995835,6.42867487 8.72263048,6.25801508 C8.48735179,6.04197384 8.090319,5.78182951 7.53217146,5.76904601 C6.57379441,5.79205631 5.76885999,6.6165924 5.76885999,7.6060357 C5.76885999,7.93904601 5.86540097,8.27141714 6.04697474,8.56607693 C6.20041736,8.81471611 6.16461408,9.13622126 5.96130261,9.34650992 C5.75863048,9.55679858 5.43640097,9.60090168 5.18322064,9.45453054 C4.90510589,9.29409755 4.61548294,9.21036559 4.32074523,9.20333467 C3.36236818,9.22634497 2.55743376,10.0508811 2.55743376,11.0409635 C2.55743376,11.483912 2.72430261,11.9166336 3.02926982,12.2579532 L2.07408949,13.1080563 C0.169482937,10.9674584 1.96540097,7.73131405 4.50871245,7.93521095 C4.26448294,5.68978827 6.52520425,3.82595322 8.68810589,4.73677796 C9.31594195,2.90554085 11.499942,1.96020064 13.2523846,3.1548192 C14.3616469,0.640942913 17.9873682,0.665231573 19.088319,3.15354085 C20.8388436,1.95700477 23.0426633,2.92919034 23.6641059,4.73166456 C25.757319,3.85024188 28.0717452,5.63418003 27.8339092,7.93329343 C29.8440075,7.76582951 31.701942,9.96075735 30.8567288,12.1473759 C32.91286,12.7680151 33.768942,15.2301182 32.4832206,16.965479 C34.0700731,18.4304687 33.7082042,21.0267986 31.7933682,22.00218 C32.9524993,23.7023862 32.1616305,26.039211 30.2103518,26.6962831 C30.5306633,28.2814378 29.5307288,29.8755409 27.9374829,30.2903656 C27.1504502,31.907479 25.0808928,32.6310254 23.454401,31.4702831" id="Fill-382-Copy" fill="#505A83"></path>
                <path d="M5.54358337,30.4254387 C3.95289485,30.0112532 2.95040304,28.4184284 3.27071452,26.8313562 C1.32199321,26.1755624 0.52728829,23.8393769 1.68769813,22.1372532 C-0.230334661,21.1605934 -0.587088759,18.5642635 0.997845667,17.0999129 C-0.698334661,14.8123047 1.43387845,11.8075418 3.70930468,12.1750676 L3.6127637,13.4521398 C3.59678009,13.4502222 3.44909157,13.4278511 3.43310796,13.4272119 C1.81109157,13.4668408 0.992091568,15.5920985 2.36668173,16.6933975 C2.72407517,16.979748 2.67228829,17.5428614 2.26502599,17.7576243 C0.647485011,18.6102841 1.12699321,21.0250882 2.94720632,21.1938305 C3.54435386,21.2494387 3.74318993,22.0260367 3.2445014,22.3609645 C1.78615714,23.3408202 2.4037637,25.597748 4.14661616,25.7121604 C4.59799321,25.7415624 4.87738665,26.2190264 4.68046862,26.6287377 C4.10953419,27.8060985 4.90423911,29.0748614 6.08702599,29.2320985 C6.32741944,29.2640573 6.52881288,29.4296037 6.60745222,29.6584284 C6.85615714,30.3858099 7.53322272,30.8862841 8.29340304,30.904181 C8.74414075,30.893315 9.19487845,30.696449 9.53181288,30.3519336 C9.77732108,30.1007377 10.180108,30.0943459 10.4326489,30.3385109 C10.5611571,30.4548408 11.2753047,31.0198717 12.2413539,30.1256655 L13.108944,31.064614 C11.9152883,32.169748 10.748485,31.9965315 10.0266653,31.6053562 C8.40592763,32.7648202 6.3255014,32.0336037 5.54358337,30.4254387" id="Fill-383-Copy" fill="#505A83"></path>
                <path d="M9.20020619,17.608099 C8.99369799,19.7077898 7.99504226,24.7796454 11.998616,29.0761815 L13.9307144,30.8601196 C14.7030423,31.5747176 15.7080914,31.9678104 16.7598127,31.9678104 C17.8364685,31.9678104 18.8581406,31.5587382 19.6362226,30.8160166 L21.5280423,29.012264 C21.6073209,28.9208619 21.7185668,28.7923877 21.826616,28.6613568 C23.7312226,26.3494599 24.6461242,23.337666 24.4031734,20.1801403 C24.4031734,20.1775836 24.0713537,17.2514392 24.0713537,17.2488825 C23.6302062,16.3847176 23.5349439,15.5307794 23.5713865,14.8864908 C22.4186488,14.8558104 21.3375177,14.26713 20.7154357,13.1568825 C19.5288127,14.39113 17.6011898,14.2773568 16.5219767,13.030965 C15.2656652,13.7756042 13.8814849,13.712965 12.799075,13.02713 C12.3879767,14.2754392 11.4027472,15.0053774 10.2583209,15.149831 C10.5063865,16.276697 10.0249603,17.1331918 9.20020619,17.608099 Z M13.0624849,31.7990681 C11.1310259,30.0125733 11.140616,30.0598722 10.6770914,29.5133774 C6.75599308,24.9068413 7.70286193,19.7678722 7.95732094,17.1843258 C7.99120619,16.8423671 8.17853406,16.6972743 8.43107504,16.5694392 C9.85297668,15.8452537 8.30640291,14.7701609 8.89587832,14.084965 C9.04164881,13.9155836 9.26286193,13.8382434 9.48727176,13.8714805 C9.71935373,13.9123877 10.3165013,13.9635217 10.8644193,13.6062227 C11.7633373,13.0175423 11.7185832,11.8120578 11.7179439,11.7999135 C11.705157,11.5205939 11.8752226,11.2636454 12.1379931,11.1684083 C12.3994849,11.072532 12.6948619,11.156264 12.8649275,11.378697 C13.0241242,11.5877073 13.4742226,12.0894599 14.2107472,12.2428619 C15.3123373,12.4710475 16.1626652,11.7379135 16.2560095,11.6541815 C16.4049767,11.5186763 16.6076488,11.4617898 16.8064849,11.4988619 C17.0034029,11.5372124 17.1721898,11.6656867 17.2604193,11.8465733 C17.5762554,12.4940578 18.2782554,12.8513568 18.9706652,12.7216042 C20.5549603,12.4192743 19.8612718,10.8123877 20.8816652,10.8673568 C21.9129275,10.9108207 21.1073537,12.5381609 22.6679931,13.366532 C23.3054193,13.7046557 23.9575505,13.6068619 24.2081734,13.5480578 C24.7509767,13.4298104 25.1703865,13.9916454 24.9178455,14.4691093 C24.8545505,14.6423258 24.6691406,15.6988825 25.2675668,16.7758928 C25.3474849,16.9190681 25.3481242,17.0187794 25.3481242,17.1638722 C25.6198455,19.5652537 26.720157,24.7317073 22.8131242,29.4737485 C22.3758127,30.0055423 22.4998455,29.8495836 20.519157,31.7409032 C18.4246652,33.7383258 15.1588947,33.7376867 13.0624849,31.7990681 Z" id="Fill-384-Copy" fill="#505A83"></path>
                <path d="M67.2119564,30.8402062 C66.2797925,31.729299 65.0407433,32.2246598 63.7537433,32.2246598 C62.4923171,32.2246598 61.277563,31.7491134 60.3511531,30.8932577 L60.0666449,32.8695876 C56.6614974,37.5751959 49.2163335,35.0766598 50.3345466,29.7785361 C50.6670056,28.2061649 51.7340712,27.2358969 51.7532515,26.2029897 C51.782022,24.6338144 49.9355957,24.2030103 49.8703826,21.3970309 C49.8237105,19.3797938 50.8575302,18.6869278 51.2168416,17.1976495 C51.6458416,15.4239381 50.9003662,13.9800412 52.1458089,11.4604124 C54.0491367,7.56463918 57.4504482,4.4742268 63.2588908,4.4742268 L63.7575794,4.4742268 L63.7505466,4.4742268 C69.5589892,4.4742268 73.1546613,7.56463918 75.0586285,11.4604124 C76.3034318,13.9800412 75.5585957,15.4239381 75.9863171,17.1976495 C76.3462679,18.6869278 77.3800876,19.3797938 77.3334154,21.3970309 C77.2682023,24.2030103 75.4217761,24.6338144 75.4511859,26.2029897 C75.4703662,27.2358969 76.5374318,28.2061649 76.8692515,29.7785361 C77.9874646,35.0766598 71.0851039,37.0996495 67.9427269,33.253732 L67.2119564,30.8402062" id="Fill-385-Copy" fill="#DCB5A9"></path>
                <path d="M75.5551475,25.9581856 C75.5270164,24.4529278 77.2986393,24.0393814 77.3606557,21.3471753 C77.4060492,19.4123918 76.027623,18.7476495 75.6830164,17.3184536 C75.271918,15.6169691 76.3722295,14.2318763 75.1785738,11.8151546 C73.3526066,8.07725773 69.9020656,5.11340206 64.3301803,5.11340206 L63.8589836,5.11340206 C62.4652131,5.11340206 61.2165738,5.29812371 60.0983607,5.63496907 C60.6833607,5.55826804 61.2952131,5.51480412 61.9409508,5.51480412 L62.4121475,5.51480412 C67.9846721,5.51480412 71.4345738,8.47929897 73.2611803,12.2165567 C74.4548361,14.6339175 73.3545246,16.0190103 73.765623,17.7204948 C74.1102295,19.1496907 75.4880164,19.814433 75.4432623,21.7485773 C75.3812459,24.4414227 73.609623,24.8543299 73.6371148,26.3595876 C73.6556557,27.3509485 74.6798852,28.2815876 74.9982787,29.7900412 C75.505918,32.1952577 74.2892459,33.8954639 72.5489508,34.6292371 C75.1772951,34.5717113 77.5965738,32.6139175 76.9156721,29.388 C76.5972787,27.8795464 75.5730492,26.9489072 75.5551475,25.9581856" id="Fill-386-Copy" fill="#C99E96"></path>
                <path d="M72.6295082,17.4565155 C72.9613279,23.2346598 70.1303115,31.0115052 64.1498852,31.0115052 C58.2634426,31.0115052 55.6229508,22.5871753 55.6229508,17.5747629 C55.6229508,12.5636289 59.1367869,7.67010309 64.1498852,7.67010309 C69.163623,7.67010309 72.6295082,17.4565155 72.6295082,17.4565155" id="Fill-387-Copy" fill="#FBE2DA"></path>
                <path d="M71.0548033,35.4882887 C68.506377,34.8957732 67.1656721,33.2799381 67.1656721,32.0482474 L67.1656721,28.7775876 L66.9777049,28.7628866 C65.8364754,29.8635464 65.2271803,30.4880206 63.666541,30.5052784 C62.106541,30.4880206 61.4978852,29.8635464 60.3566557,28.7628866 L60.1686885,28.7775876 L60.1686885,32.0482474 C60.5490984,33.4339794 58.4207213,34.435567 56.9016393,35.8749897 C56.9016393,35.8749897 58.2596066,41.0983299 63.8967049,44.3632371 C70.0043607,41.0734021 71.0548033,35.4882887 71.0548033,35.4882887" id="Fill-388-Copy" fill="#FBE2DA"></path>
                <path d="M67.0665738,32.0584742 L67.0665738,30.8152784 C66.1305738,31.6494021 64.9196557,32.1198351 63.6563115,32.1198351 C62.3277541,32.1198351 61.053541,31.6008247 60.0983607,30.6804124 L60.0983607,31.5343505 L60.4071639,31.8417938 C61.3687377,32.8037526 62.3910492,33.0651753 63.7515738,33.0651753 C64.8512459,33.0651753 66.1925902,32.7014845 67.0665738,32.0584742" id="Fill-389-Copy" fill="#F8D5CA"></path>
                <polyline id="Fill-390-Copy" fill="#F6CBC1" points="63.451082 22.717567 62.0163934 23.3330928 62.7049672 19.1752577 63.2938033 19.1816495 63.451082 22.717567"></polyline>
                <path d="M66.6740164,19.6452294 L65.852459,18.6666521 C67.2487869,17.4950438 68.7749016,17.9392706 69.6859672,18.2058067 C69.9468197,18.2818686 70.2159836,18.3604871 70.3476885,18.3604871 L70.3476885,19.6388376 C70.0337705,19.6388376 69.7070656,19.5429613 69.3279344,19.432384 C68.4929508,19.1894974 67.5467213,18.9140129 66.6740164,19.6452294" id="Fill-391-Copy" fill="#505A83"></path>
                <path d="M68.9775738,19.4596907 C68.9775738,19.9691134 68.5645574,20.3820206 68.0543607,20.3820206 C67.5441639,20.3820206 67.1311475,19.9691134 67.1311475,19.4596907 C67.1311475,18.9496289 67.5441639,18.5360825 68.0543607,18.5360825 C68.5645574,18.5360825 68.9775738,18.9496289 68.9775738,19.4596907" id="Fill-392-Copy" fill="#505A83"></path>
                <path d="M61.2146557,19.6457061 C60.3406721,18.9138504 59.395082,19.1899741 58.561377,19.4328607 C58.1822459,19.543438 57.855541,19.6393143 57.5409836,19.6393143 L57.5409836,18.3609638 C57.6726885,18.3609638 57.9418525,18.2823453 58.2033443,18.2062834 C59.1137705,17.9397473 60.6392459,17.4942422 62.0362131,18.6671288 L61.2146557,19.6457061" id="Fill-393-Copy" fill="#505A83"></path>
                <path d="M58.8196721,19.4596907 C58.8196721,19.9691134 59.2326885,20.3820206 59.7428852,20.3820206 C60.2524426,20.3820206 60.665459,19.9691134 60.665459,19.4596907 C60.665459,18.9496289 60.2524426,18.5360825 59.7428852,18.5360825 C59.2326885,18.5360825 58.8196721,18.9496289 58.8196721,19.4596907" id="Fill-394-Copy" fill="#505A83"></path>
                <path d="M64.5833607,23.9978351 C64.1454098,23.5484948 63.3698852,23.5484948 62.9312951,23.9978351 L62.0163934,23.1049072 C62.478,22.6319175 63.0962459,22.371134 63.7573279,22.371134 C64.4184098,22.371134 65.0366557,22.6319175 65.4989016,23.1049072 L64.5833607,23.9978351" id="Fill-395-Copy" fill="#505A83"></path>
                <path d="M64.2010328,28.3883299 C63.6288197,28.3883299 63.079623,28.1767629 62.6557377,27.7926186 L63.5150164,26.8453608 C63.8832787,27.1802887 64.489377,27.1885979 64.8665902,26.8638969 L65.6996557,27.8341649 C65.2834426,28.1914639 64.7515082,28.3883299 64.2010328,28.3883299" id="Fill-396-Copy" fill="#505A83"></path>
                <path d="M61.2274426,27.0927216 C61.0695246,27.0927216 60.9058525,27.0741856 60.7377049,27.032 L61.0484262,25.792 C61.6244754,25.9390103 62.2024426,25.3151753 62.2075574,25.3094227 L62.5406557,24.9303918 L63.6077213,25.4973402 L64.7080328,24.9278351 L65.0366557,25.3228454 C65.0392131,25.3254021 65.5820164,25.9511546 66.1567869,25.7836907 L66.5192951,27.0096289 C65.6785574,27.2576289 64.9234918,26.9022474 64.4337541,26.5091546 L63.6000492,26.9399588 L62.7810492,26.5053196 C62.4358033,26.7724948 61.8846885,27.0927216 61.2274426,27.0927216" id="Fill-397-Copy" fill="#505A83"></path>
                <path d="M50.3432459,42.3907423 L49.2295082,41.7630722 C52.2325082,36.445134 57.2021311,35.2287835 59.0728525,33.3150928 C60.1290492,32.2361649 59.8215246,30.2713402 59.8183279,30.2521649 L61.0797541,30.0412371 C61.0970164,30.1473402 61.5017213,32.6612165 59.9871148,34.209299 C59.2704098,34.9417938 58.2647213,35.5343093 57.0998361,36.2201443 C54.9151967,37.5068041 52.1973443,39.1079381 50.3432459,42.3907423" id="Fill-398-Copy" fill="#505A83"></path>
                <path d="M74.9799845,38.9475052 C73.7089681,37.8513196 72.3618697,37.0581031 71.1733287,36.357567 C70.0084435,35.671732 69.0021156,35.0792165 68.2854107,34.3460825 C66.7740009,32.8005567 67.1742304,30.153732 67.192132,30.0412371 L68.4548369,30.2425773 L67.8231648,30.1415876 L68.4554763,30.241299 C68.4516402,30.2617526 68.1396402,32.3691134 69.199673,33.4518763 C69.7980992,34.063567 70.7360172,34.6164536 71.8222631,35.256268 C73.0574763,35.9836495 74.4570009,36.8081856 75.8149681,37.9797938 L74.9799845,38.9475052" id="Fill-399-Copy" fill="#505A83"></path>
                <path d="M51.893078,35.1501649 C49.6790289,33.6691959 48.7347174,30.9156289 50.6035207,27.4960412 C51.2850617,26.247732 51.3445207,26.0118763 50.5229633,24.8901237 C48.9802256,22.7840412 48.81016,20.7674433 50.0524059,18.3756495 C50.624619,17.2756289 50.7492912,16.8831753 50.7428977,15.2916289 C50.7384223,14.1692371 50.7326682,12.8979175 51.5829961,11.1772577 C53.9300289,6.37513402 57.971324,3.83505155 63.2695699,3.83505155 L63.7682584,3.83505155 C69.4270944,3.83760825 73.9792256,6.66148454 75.6581436,11.2085773 C76.4924879,12.9132577 76.4873731,14.1769072 76.4828977,15.292268 C76.4803403,15.8950103 76.477783,16.4657938 76.6184387,17.0480825 C76.7379961,17.5389691 76.9489797,17.9454845 77.1721108,18.3756495 C77.5678649,19.136268 78.0160453,19.9991546 77.9834387,21.411732 C77.9418813,23.1982268 77.2251764,24.1761649 76.7028321,24.8901237 C76.301324,25.4385361 76.0922584,25.744701 76.1012092,26.1908454 C76.1076026,26.5545361 76.346078,26.9910928 76.6222748,27.4960412 C80.9800453,35.4703918 71.1725043,37.8736907 67.5947338,33.4966186 L68.585078,32.6880619 C70.6028485,35.1565567 77.4073895,35.3706804 76.2546518,29.9102062 C76.1088813,29.2230928 75.800078,28.6567835 75.5002256,28.1096495 C75.1581764,27.4832577 74.8353076,26.8920206 74.8225207,26.2144948 C74.8052584,25.3164536 75.2457666,24.716268 75.6709305,24.1352577 C76.1632256,23.4628454 76.672783,22.7674227 76.7047502,21.3816907 C76.730324,20.2976495 76.4093731,19.679567 76.0372748,18.9649691 C75.7885699,18.4862268 75.5309141,17.9902268 75.3761928,17.3478557 C75.1984551,16.6147216 75.2016518,15.9391134 75.2042092,15.2865155 C75.2086846,14.2101443 75.2125207,13.1938557 74.4964551,11.7429278 L74.4689633,11.6790103 C72.988242,7.62983505 68.8855699,5.11340206 63.7612256,5.11340206 L63.2695699,5.11340206 C58.4252584,5.11340206 54.8794551,7.34284536 52.730619,11.7403711 C51.5516682,14.1270515 52.3144059,15.4252165 51.8489633,17.3484948 C51.458324,18.9707216 50.4775699,19.5485361 50.5204059,21.3816907 C50.581783,23.9933608 52.4377994,24.3084742 52.4032748,26.2144948 C52.3789797,27.4781443 51.2850617,28.4254021 50.9711436,29.9108454 C50.6086354,31.6283093 51.2038649,33.1508247 52.6046682,34.0878557 C54.188324,35.1463299 56.3518649,35.1054227 57.9892256,33.9875052 L58.7104059,35.0421443 C56.6446846,36.4534433 53.9050944,36.496268 51.893078,35.1501649" id="Fill-400-Copy" fill="#505A83"></path>
                <path d="M71.8296693,16.3922887 C61.7190791,16.3922887 59.843243,12.228701 59.843243,12.228701 C55.8032266,13.2181443 55.0315381,16.440866 55.0315381,16.440866 C55.0315381,16.440866 53.911407,6.39175258 62.5009971,6.39175258 C68.7659316,6.39175258 72.6505873,9.84074227 71.8296693,16.3922887" id="Fill-401-Copy" fill="#DCB5A9"></path>
                <path d="M56.5642576,16.3270928 C56.3238642,18.7757732 55.4083232,23.4443093 58.9912085,27.6526392 C59.1043724,27.7862268 59.2194544,27.9153402 59.3383724,28.0425361 L61.2704708,29.8264742 C62.0427986,30.5410722 63.0472085,30.9341649 64.1002085,30.9341649 C65.1762249,30.9341649 66.197897,30.525732 66.975979,29.7830103 L68.8677986,27.9779794 C68.9477167,27.8872165 69.0583232,27.7581031 69.1657331,27.6277113 C71.0703396,25.3164536 71.9858806,22.3046598 71.7429298,19.1464948 L71.4769626,16.8013608 C63.8137822,16.6754433 61.0761101,14.0273402 60.2622249,12.9151753 C57.3845363,13.8074639 56.6576019,15.9991959 56.5642576,16.3270928 Z M64.1002085,32.2125155 C62.7243396,32.2125155 61.4117658,31.6986186 60.4022413,30.7654227 C58.4714216,28.9802062 58.4816511,29.0281443 58.0168478,28.4803711 C55.8302904,25.9121649 54.7408478,22.4107629 55.0291921,18.8742062 L55.3111429,16.0637526 C55.3431101,15.9282474 56.1243888,12.8435876 59.9099462,11.6854021 L59.9099462,5.11340206 L61.1886347,5.11340206 L61.1886347,12.0056289 C61.5537003,12.5802474 63.8316839,15.5274845 72.047897,15.5274845 L72.6194708,15.5274845 L73.0152249,19.0256907 C73.2863068,22.5379588 72.2684708,25.8731753 70.1522413,28.4401031 C70.0333232,28.5858351 69.9105691,28.7283711 69.783979,28.8689897 L67.8589134,30.7078969 C66.8417167,31.6788041 65.5067658,32.2125155 64.1002085,32.2125155 Z" id="Fill-402-Copy" fill="#505A83"></path>
                <path d="M63.8871148,45.0382062 L63.5917377,44.8860825 C57.5889344,41.7943918 56.314082,35.6627835 56.2622951,35.4039175 L57.5166885,35.1546392 C57.5275574,35.2108866 58.6924426,40.7327216 63.8730492,43.5872784 C65.0002131,42.9135876 69.1214262,40.1830309 70.3201967,35.7024124 L71.5554098,36.0335052 C70.021623,41.7649897 64.4190492,44.7588866 64.1818525,44.8841649 L63.8871148,45.0382062" id="Fill-403-Copy" fill="#505A83"></path>
                <path d="M40.5849344,61.4336907 C47.7590164,61.4336907 54.0469672,59.6388866 59.5453279,55.964268 L59.2716885,47.6402887 C58.4597213,42.5396701 54.6959016,38.5601649 49.8854754,36.6765155 L47.1196721,35.6506392 C45.8531311,35.1527216 45.0200656,34.5889691 45.0200656,32.5698144 L45.0200656,30.4624536 C42.136623,33.0344948 38.2864918,32.5250722 35.9624754,30.2841237 L35.9624754,29.4020619 L36.1178361,32.5672577 C36.1178361,33.9293402 35.2834918,35.1520825 34.0143934,35.6487216 L31.237082,36.6765155 C26.4266557,38.5601649 22.8181967,42.3843505 22.0055902,47.4856082 L21.7377049,55.9649072 C27.0295574,59.6388866 33.3910328,61.4336907 40.5849344,61.4336907" id="Fill-404-Copy" fill="#8FCBE4"></path>
                <path d="M35.1159836,35.7938144 L32.6065574,37.0568247 L34.9657377,44.1529485 L41.0701967,39.9727423 L41.1187869,39.9727423 C38.3651311,39.9727423 36.0180984,38.2329072 35.1159836,35.7938144" id="Fill-405-Copy" fill="#EBF7F9"></path>
                <path d="M47.0224918,35.1546392 C46.2066885,37.7484124 43.7822951,39.6307835 40.9180328,39.6307835 L47.0224918,43.8109897 L49.5383115,36.5831959 L47.0224918,35.1546392" id="Fill-406-Copy" fill="#EBF7F9"></path>
                <path d="M35.3532009,12.1858763 C34.4587583,12.1858763 32.9051517,10.5272165 32.0650533,10.3444124 C32.0650533,10.3444124 31.3681681,13.3491753 31.3681681,14.1244948 C31.3681681,22.8243093 30.8854632,24.6644948 33.2612664,27.0396701 C36.4247419,30.2023093 37.8185124,32.2176289 41.1731517,32.2176289 C42.9575615,32.2176289 44.6671681,31.4947216 45.911332,30.2118969 C48.9283976,27.0971959 50.8189386,25.7427835 50.8189386,22.5296495 L50.8189386,14.1244948 C50.8189386,10.4025773 49.4660861,7.27573196 46.0193812,6.39175258 C46.0193812,6.39175258 42.399414,12.1858763 35.3532009,12.1858763" id="Fill-407-Copy" fill="#FBE2DA"></path>
                <path d="M49.8918689,11.5051546 C49.9129672,11.8260206 49.5408689,12.1500825 49.5408689,12.4818144 L49.5408689,20.8863299 C49.5408689,24.5788454 48.5377377,24.9904742 45.1946066,28.5692165 C42.7229016,31.2141237 38.6394098,31.2467216 36.1287049,28.6433608 C32.8910656,25.2876907 31.825918,24.5379381 31.3278689,22.243299 C31.3591967,23.9115464 32.0081311,25.5056495 33.148082,26.6881237 C36.2054262,29.858433 37.5467705,31.8667216 40.7767377,31.8667216 C44.1115574,31.8667216 45.5168361,29.676268 48.3222787,26.674701 C49.4488033,25.4692165 50.0785574,23.8565773 50.0785574,22.1781031 C50.0785574,13.0263918 50.135459,12.9190103 49.8918689,11.5051546" id="Fill-408-Copy" fill="#F6CBC1"></path>
                <path d="M46.3211311,7.03092784 C46.3211311,7.03092784 43.5355082,12.0823299 36.4886557,12.0823299 C35.5942131,12.0823299 33.207541,11.1657526 32.3674426,10.9823093 C32.3674426,10.9823093 32.1570984,11.889299 31.9672131,12.8359175 C32.1091475,12.6064536 32.2498033,12.3916907 32.3859836,12.1973814 C38.3472295,15.3753608 46.0410984,15.9180206 48.8625246,9.83435052 C49.3708033,10.339299 50.1719016,11.1229278 50.8713443,12.1916289 C50.3419672,9.66113402 48.9347705,7.70078351 46.3211311,7.03092784" id="Fill-409-Copy" fill="#F6CBC1"></path>
                <path d="M48.0831392,4.51795465 L44.3608769,4.51795465 L46.6804179,2.66498558 C36.8632867,-3.69672576 25.9963523,5.99892373 29.4123687,16.8578722 L30.8873359,16.8578722 C31.0088113,15.4862021 30.9538277,13.6709443 32.8296638,10.9883258 C38.007713,13.7489237 44.6907785,14.2206351 47.1413851,8.93593403 C49.1930408,10.9736248 50.5637949,13.2554804 50.3323523,16.8546763 L51.9089753,16.8578722 C52.9300081,12.0225114 51.87509,7.79308867 48.0831392,4.51795465" id="Fill-410-Copy" fill="#FFFFFE"></path>
                <path d="M46.2675401,7.67010309 C43.8156548,12.9573608 37.1306712,12.4818144 31.9551794,9.72249485 C30.3785565,11.9775052 29.8869007,14.0292577 30.0940483,16.6057732 L30.9904089,16.6057732 C31.111245,15.2328247 31.0569007,13.4182062 32.9320975,10.7355876 C38.1369991,13.5102474 44.7912942,13.9512784 47.2393434,8.69406186 C46.8736384,8.27092784 46.5258352,7.92769072 46.2675401,7.67010309" id="Fill-411-Copy" fill="#EAF1F5"></path>
                <path d="M48.5901639,4.4742268 C49.9251148,6.10412371 51.6884262,10.4358144 50.5133115,15.9972784 L51.7095246,16.1756082 C53.2765574,8.75734021 49.2295082,5.01241237 48.5901639,4.4742268" id="Fill-412-Copy" fill="#EAF1F5"></path>
                <path d="M50.1360984,16.6185567 L50.9595738,16.6185567 C51.9780492,16.6185567 52.746541,17.5415258 52.5624098,18.5418351 C52.2747049,20.1052577 52.2676721,21.3823299 50.876459,22.0298144 L49.8688525,22.5890928 L50.1360984,16.6185567" id="Fill-413-Copy" fill="#FBE2DA"></path>
                <path d="M45.6082623,30.8402062 C44.3711311,31.9434227 42.7702131,32.5653402 41.1002459,32.5653402 C39.3420492,32.5653402 37.6586557,31.258866 36.3959508,30.0412371 C36.3959508,34.0194639 36.6382623,34.6880412 35.1639344,35.2875876 C37.1522951,40.8330722 44.8461639,40.8190103 46.8364426,35.2875876 C45.3844918,34.6963505 45.6082623,33.9485155 45.6082623,30.8402062" id="Fill-414-Copy" fill="#FBE2DA"></path>
                <path d="M45.6549344,32.502701 L45.6549344,30.8587423 C42.9901475,33.2358351 38.9897705,33.1361237 36.442623,30.6804124 C36.442623,31.1048247 36.442623,31.0089485 36.442623,31.4327216 C39.4584098,34.4477113 43.0860492,34.3908247 45.6549344,32.502701" id="Fill-415-Copy" fill="#F8D5CA"></path>
                <polyline id="Fill-416-Copy" fill="#F6CBC1" points="40.5216393 22.356433 39 23.0096701 39.7403607 18.5360825 40.3541311 18.6057526 40.5216393 22.356433"></polyline>
                <polyline id="Fill-417-Copy" fill="#85B7D8" points="30.2882951 59.6267423 29.4098361 59.4343505 29.4098361 49.2164948 30.2882951 49.2164948 30.2882951 59.6267423"></polyline>
                <polyline id="Fill-418-Copy" fill="#85B7D8" points="53.3046885 59.0610722 52.4262295 59.4343505 52.4262295 49.2164948 53.3046885 49.2164948 53.3046885 59.0610722"></polyline>
                <path d="M50.4934918,22.9553402 L49.8688525,21.8393402 C50.6737869,21.3893608 51.3988033,21.1170722 51.5778197,20.1455258 C51.8348361,18.7514845 52.1231803,18.144268 51.6820328,17.6143918 C51.2786066,17.1305361 50.7326066,17.257732 49.881,17.257732 L49.881,15.9793814 L50.9212131,15.9793814 C52.338,15.9793814 53.409541,17.2634845 53.1518852,18.6581649 C52.8462787,20.3187423 52.8008852,21.8220825 51.1072623,22.6095464 L50.4934918,22.9553402" id="Fill-419-Copy" fill="#505A83"></path>
                <path d="M31.2241676,16.6185567 L30.4000528,16.6185567 C29.3822167,16.6185567 28.6137249,17.5415258 28.7978561,18.5418351 C29.085561,20.1052577 29.0919544,21.3823299 30.4838069,22.0298144 L31.4907741,22.5890928 L31.2241676,16.6185567" id="Fill-420-Copy" fill="#FBE2DA"></path>
                <path d="M30.8177423,22.9564792 C29.9463161,22.4694277 28.7718407,21.9906854 28.475185,20.3774071 C28.1708571,18.7238607 27.812185,17.7989741 28.6471686,16.7967473 C29.3830538,15.9140462 30.271103,15.9805205 30.9878079,15.9805205 L30.9878079,17.258871 C28.8121194,17.258871 29.4067095,18.3780669 29.7327751,20.1466648 C29.8382669,20.7180875 30.2161194,21.2064174 30.7429391,21.4524998 L31.4423817,21.8404792 L30.8177423,22.9564792" id="Fill-421-Copy" fill="#505A83"></path>
                <polygon id="Fill-422-Copy" fill="#505A83" points="28.1311475 59.443299 29.4098361 59.443299 29.4098361 49.2164948 28.1311475 49.2164948"></polygon>
                <path d="M37.7213115,26.6868454 L38.337,25.5670103 C40.3982459,26.696433 41.5950984,26.6721443 43.5310328,25.5778763 L44.185082,26.6766186 C41.8048033,28.0994227 39.9666885,27.9287629 37.7213115,26.6868454" id="Fill-423-Copy" fill="#505A83"></path>
                <polygon id="Fill-424-Copy" fill="#505A83" points="43.4754098 15.9793814 46.6721311 15.9793814 46.6721311 14.7010309 43.4754098 14.7010309"></polygon>
                <polygon id="Fill-425-Copy" fill="#505A83" points="34.5245902 15.9793814 37.7213115 15.9793814 37.7213115 14.7010309 34.5245902 14.7010309"></polygon>
                <path d="M41.7236066,24.0323512 C41.241541,23.5389079 40.3956885,23.5389079 39.913623,24.0323512 L39,23.138145 C39.997377,22.1173821 41.6360164,22.1135471 42.6378689,23.138145 L41.7236066,24.0323512" id="Fill-426-Copy" fill="#505A83"></path>
                <path d="M41.3189016,29.6730655 C40.9122787,29.3061789 40.2473607,29.2972305 39.8317869,29.6526119 L39,28.6817047 C39.8886885,27.9217253 41.3086721,27.9396222 42.1769016,28.7258078 L41.3189016,29.6730655" id="Fill-427-Copy" fill="#505A83"></path>
                <polygon id="Fill-428-Copy" fill="#505A83" points="51.147541 59.443299 52.4262295 59.443299 52.4262295 49.2164948 51.147541 49.2164948"></polygon>
                <path d="M47.639459,18.4306843 C46.4163934,18.4306843 45.7290984,17.233509 43.4217049,18.422375 L42.8360656,17.2865606 C45.5801311,15.8663132 46.939377,17.1523338 47.639459,17.1523338 L47.639459,18.4306843" id="Fill-429-Copy" fill="#505A83"></path>
                <path d="M45.0852787,19.854701 C43.7918853,19.854701 43.7906066,17.8969072 45.0852787,17.8969072 C46.3799509,17.8969072 46.3812296,19.854701 45.0852787,19.854701" id="Fill-430-Copy" fill="#505A83"></path>
                <path d="M33.8852459,18.4312506 L33.8852459,17.1529 C34.5866066,17.1529 35.9420164,15.8656011 38.6886393,17.2871269 L38.1036393,18.4235805 C35.7872951,17.2379104 35.1115082,18.4312506 33.8852459,18.4312506" id="Fill-431-Copy" fill="#505A83"></path>
                <path d="M36.7742828,19.854701 C38.0683156,19.854701 38.0695943,17.8969072 36.7742828,17.8969072 C35.4802501,17.8969072 35.4789714,19.854701 36.7742828,19.854701" id="Fill-432-Copy" fill="#505A83"></path>
                <path d="M22.3732131,55.7437526 L21.0983607,55.6465979 L21.7517705,47.1302268 C23.1615246,38.254 31.0817213,35.8877732 34.1767869,34.7430103 C36.2879016,33.9159175 35.841,31.8264536 35.7553279,30.1038763 L37.033377,30.0412371 L37.1407869,32.229134 C37.1414262,35.4946804 34.2918689,36.062268 31.8419016,36.9686186 C26.9803279,38.8733608 23.7605902,42.6329897 23.0208689,47.2791546 L22.3732131,55.7437526" id="Fill-433-Copy" fill="#505A83"></path>
                <path d="M59.1849353,55.7846598 L58.3742468,47.6262268 C57.6396402,43.0228866 54.2805255,39.1092165 49.3908205,37.1936082 L46.6365255,36.1728454 C43.8905418,35.0926392 44.1194271,33.556701 44.1194271,30.6804124 L45.3981156,30.6804124 L45.3981156,32.4924742 C45.3981156,34.6912371 46.1774763,34.6388247 49.846673,35.9996289 C55.17305,38.0858969 58.8307386,42.3690103 59.6414271,47.4625979 L60.4578697,55.6587423 L59.1849353,55.7846598" id="Fill-434-Copy" fill="#505A83"></path>
                <path d="M33.8852459,35.8647629 L35.0840164,35.4218144 C36.9764754,40.5364948 44.3353279,40.3920412 45.9816393,35.1546392 L47.2015082,35.5375052 C45.184377,41.9516289 36.1926393,42.1056701 33.8852459,35.8647629" id="Fill-435-Copy" fill="#505A83"></path>
                <path d="M35.3207672,30.6810515 C29.4995377,24.8607216 30.0640787,26.2119381 30.0640787,16.6185567 L31.3427672,16.6185567 L31.3427672,22.520701 C31.3427672,25.4372577 33.0005869,26.5532577 36.2248,29.7772577 C38.5884557,32.1390103 42.3561115,32.0124536 44.5842262,29.7107835 C47.6409311,26.5558144 49.2444065,25.4302268 49.2444065,22.5801443 L49.2444065,16.6185567 L50.5230951,16.6185567 C50.5230951,22.6338351 50.9930131,24.9355052 48.5462426,27.4589691 L45.5029639,30.5998763 C42.7819147,33.4084124 38.1958983,33.5541443 35.3207672,30.6810515" id="Fill-436-Copy" fill="#505A83"></path>
                <polyline id="Fill-437-Copy" fill="#505A83" points="47.0736393 44.8707423 40.2786885 40.2175464 41.0017869 39.162268 46.4151148 42.8707629 48.6566557 36.4329897 49.864377 36.853567 47.0736393 44.8707423"></polyline>
                <polyline id="Fill-438-Copy" fill="#505A83" points="33.9542951 44.7377938 31.3278689 36.8363093 32.5413443 36.4329897 34.6326393 42.7237526 40.036377 39.0222887 40.7594754 40.077567 33.9542951 44.7377938"></polyline>
                <path d="M50.5005246,17.2195329 L49.2320656,17.0616566 C49.6016066,13.8095329 48.9641803,11.9533679 47.1503607,10.0179453 C44.2995246,14.7446463 37.8702787,14.3048937 32.8987377,11.8319246 C31.8655574,13.4720484 31.5350164,14.7158834 31.3227541,16.5547906 L30.0491803,16.4474092 C30.2294754,14.2838009 30.9122951,12.4161308 32.1590164,10.6353886 C32.3437869,10.3714092 32.6973443,10.2857597 32.9837705,10.4378834 C37.7878033,12.9984195 44.1269016,13.6120277 46.4151148,8.68015145 C46.5020656,8.49095557 46.6772459,8.35672877 46.8824754,8.3196566 C47.0864262,8.28194526 47.2967705,8.34841949 47.4457377,8.49606897 L47.5090328,8.55806897 C48.1841803,9.22856382 49.3151803,10.3503164 50.0127049,12.0236772 C50.8770984,14.0984401 50.5165082,17.0929762 50.5005246,17.2195329" id="Fill-439-Copy" fill="#505A83"></path>
                <path d="M52.72886,17.3291091 L51.4776633,17.0644905 C52.4622534,12.4055421 51.5531059,8.30331526 47.8986141,5.04863485 L44.3943682,5.04863485 C44.1226469,5.04863485 43.8803354,4.87669671 43.7908272,4.6210266 C43.701319,4.36471732 43.7831551,4.07964516 43.9954174,3.91026372 L45.5541387,2.66451114 C36.2772534,-2.31466412 27.360319,6.83321217 29.6926469,16.402305 L28.43186,17.1929647 C28.4094829,17.1002843 26.2695977,7.3982431 33.7364993,2.06560392 C38.4113846,-1.27472597 43.816401,-0.0289733968 47.0252698,2.04962454 C47.1978928,2.16084104 47.305942,2.34875856 47.3161715,2.55393382 C47.326401,2.75910908 47.2368928,2.95725341 47.0764174,3.08508846 L46.2184174,3.77028434 L48.1396469,3.77028434 C48.2930895,3.77028434 48.4420567,3.82589258 48.557778,3.9262431 C48.9030239,4.22409877 49.1274338,4.44141836 49.2054338,4.51875856 C49.7188272,4.92655238 54.4928108,8.97956269 52.72886,17.3291091" id="Fill-440-Copy" fill="#505A83"></path>
            </g>
        </g>
    </g>
</svg>