<?xml version="1.0" encoding="UTF-8"?>
<svg width="81px" height="56px" viewBox="0 0 81 56" version="1.1" xmlns="http://www.w3.org/2000/svg" xmlns:xlink="http://www.w3.org/1999/xlink">
    <!-- Generator: Sketch 52.5 (67469) - http://www.bohemiancoding.com/sketch -->
    <title>social directory</title>
    <desc>Created with Sketch.</desc>
    <g id="Version2" stroke="none" stroke-width="1" fill="none" fill-rule="evenodd">
        <g id="sign-in" transform="translate(-105.000000, -491.000000)">
            <g id="social-directory" transform="translate(105.000000, 491.000000)">
                <g id="Group-19">
                    <polygon id="Fill-213" fill="#FAD8AF" points="14.6666667 7.09333333 52.966 7.09333333 52.966 0.666666667 14.6666667 0.666666667"></polygon>
                    <polyline id="Fill-214" fill="#F6C79F" points="50.9366667 -2.84217094e-13 50.9366667 4.42666667 14.6666667 4.42666667 14.6666667 6.42666667 52.9653333 6.42666667 52.9653333 -2.84217094e-13 50.9366667 -2.84217094e-13"></polyline>
                    <path d="M14.404,10.6666667 L6.60733333,10.6666667 C5.53533333,10.6666667 4.66666667,11.5353333 4.66666667,12.6066667 L4.66666667,14.5626667 L14.404,14.5626667 L14.404,10.6666667" id="Fill-215" fill="#8FCBE4"></path>
                    <path d="M60.834,10.6666667 L53.3333333,10.6666667 L53.3333333,14.5626667 L62.7746667,14.5626667 L62.7746667,12.6066667 C62.7746667,11.5353333 61.906,10.6666667 60.834,10.6666667" id="Fill-216" fill="#8FCBE4"></path>
                    <polygon id="Fill-217" fill="#85B7D8" points="53.3333333 14.3406667 55.4286667 14.3406667 55.4286667 10.6666667 53.3333333 10.6666667"></polygon>
                    <polygon id="Fill-218" fill="#85B7D8" points="12 14.3406667 14.0946667 14.3406667 14.0946667 10.6666667 12 10.6666667"></polygon>
                    <polygon id="Fill-219" fill="#D4E3ED" points="4.66666667 50.1073333 62.5033333 50.1073333 62.5033333 14.6666667 4.66666667 14.6666667"></polygon>
                    <polygon id="Fill-220" fill="#C5D4E4" points="53.3333333 49.46 55.1466667 49.46 55.1466667 14.6666667 53.3333333 14.6666667"></polygon>
                    <polygon id="Fill-221" fill="#C5D4E4" points="12 49.46 13.8133333 49.46 13.8133333 14.6666667 12 14.6666667"></polygon>
                    <polygon id="Fill-222" fill="#FFFFFE" points="14 50.2866667 52.8706667 50.2866667 52.8706667 6.66666667 14 6.66666667"></polygon>
                    <polyline id="Fill-223" fill="#EAF1F5" points="51.164 6.66666667 51.164 48.616 14 48.616 14 50.2873333 52.87 50.2873333 52.87 6.66666667 51.164 6.66666667"></polyline>
                    <path d="M0.666666667,50 L0.666666667,52.7193333 C0.666666667,53.7913333 1.53533333,54.66 2.60666667,54.66 L65.0853333,54.66 C66.1566667,54.66 67.0253333,53.7913333 67.0253333,52.7193333 L67.0253333,50 C60.21,50 7.03266667,50 0.666666667,50" id="Fill-224" fill="#8FCBE4"></path>
                    <path d="M28.0143089,50.6666667 C28.0143089,51.804 27.8036422,53.1073333 28.9989756,53.1073333 L39.0949756,53.1073333 C39.6389756,53.1073333 40.0796422,52.666 40.0796422,52.1226667 L40.0796422,50.6666667 L28.0143089,50.6666667" id="Fill-225" fill="#FFFFFE"></path>
                    <path d="M1.33333333,51.3333333 L1.33333333,53.3933333 C1.33333333,54.096 1.904,54.6666667 2.60666667,54.6666667 L65.3933333,54.6666667 C66.0953333,54.6666667 66.6666667,54.096 66.6666667,53.3933333 L66.6666667,51.3333333 L1.33333333,51.3333333 Z M65.3933333,56 L2.60666667,56 C1.16933333,56 0,54.8306667 0,53.3933333 L0,50 L68,50 L68,53.3933333 C68,54.8306667 66.8306667,56 65.3933333,56 Z" id="Fill-226" fill="#505A83"></path>
                    <path d="M6,50.6666667 L4.66666667,50.6666667 L4.66666667,12.6066667 C4.66666667,11.1693333 5.836,10 7.27333333,10 L14.6666667,10 L14.6666667,11.3333333 L7.27333333,11.3333333 C6.57066667,11.3333333 6,11.904 6,12.6066667 L6,50.6666667" id="Fill-227" fill="#505A83"></path>
                    <path d="M64,50.6666667 L62.6666667,50.6666667 L62.6666667,12.6066667 C62.6666667,11.904 62.0953333,11.3333333 61.3933333,11.3333333 L54,11.3333333 L54,10 L61.3933333,10 C62.8306667,10 64,11.1693333 64,12.6066667 L64,50.6666667" id="Fill-228" fill="#505A83"></path>
                    <path d="M39.0146667,54 L28.9846667,54 C28.074,54 27.3333333,53.2593333 27.3333333,52.348 L27.3333333,50.6666667 L28.6666667,50.6666667 L28.6666667,52.348 C28.6666667,52.87 28.7593333,52.6666667 39.0146667,52.6666667 C39.1906667,52.6666667 39.3333333,52.524 39.3333333,52.348 L39.3333333,50.6666667 L40.6666667,50.6666667 L40.6666667,52.348 C40.6666667,53.2593333 39.926,54 39.0146667,54" id="Fill-229" fill="#505A83"></path>
                    <polygon id="Fill-230" fill="#505A83" points="54 15.3333333 63.3333333 15.3333333 63.3333333 14 54 14"></polygon>
                    <polygon id="Fill-231" fill="#505A83" points="5.33333333 15.3333333 14.6666667 15.3333333 14.6666667 14 5.33333333 14"></polygon>
                    <polyline id="Fill-232" fill="#505A83" points="54 50.6666667 52.6666667 50.6666667 52.6666667 1.33333333 15.3333333 1.33333333 15.3333333 50.6666667 14 50.6666667 14 0 54 0 54 50.6666667"></polyline>
                    <polygon id="Fill-233" fill="#505A83" points="14.6666667 8 52.6666667 8 52.6666667 6.66666667 14.6666667 6.66666667"></polygon>
                    <path d="M48.8733333,4.10333333 C48.8733333,5.12133333 47.3333333,5.12266667 47.3333333,4.10333333 C47.3333333,3.678 47.678,3.33333333 48.1033333,3.33333333 C48.5286667,3.33333333 48.8733333,3.678 48.8733333,4.10333333" id="Fill-234" fill="#505A83"></path>
                    <path d="M20.6666667,24.6666667 L47.3333333,24.6666667 L47.3333333,14 L20.6666667,14 L20.6666667,24.6666667 Z M19.3333333,26 L48.6666667,26 L48.6666667,12.6666667 L19.3333333,12.6666667 L19.3333333,26 Z" id="Fill-235" fill="#C7D7E6"></path>
                    <polygon id="Fill-236" fill="#C7D7E6" points="32.6666667 31.3333333 48.6666667 31.3333333 48.6666667 30 32.6666667 30"></polygon>
                    <polygon id="Fill-237" fill="#C7D7E6" points="32.6666667 35.3333333 48.6666667 35.3333333 48.6666667 34 32.6666667 34"></polygon>
                    <polygon id="Fill-238" fill="#C7D7E6" points="32.6666667 39.3333333 48.6666667 39.3333333 48.6666667 38 32.6666667 38"></polygon>
                    <polygon id="Fill-239" fill="#C7D7E6" points="32.6666667 44 37.3333333 44 37.3333333 42.6666667 32.6666667 42.6666667"></polygon>
                    <path d="M20.6666667,36.6666667 L26,36.6666667 L26,31.3333333 L20.6666667,31.3333333 L20.6666667,36.6666667 Z M19.3333333,38 L27.3333333,38 L27.3333333,30 L19.3333333,30 L19.3333333,38 Z" id="Fill-240" fill="#C7D7E6"></path>
                    <polygon id="Fill-241" fill="#505A83" points="18 4.66666667 20 4.66666667 20 3.33333333 18 3.33333333"></polygon>
                    <polygon id="Fill-242" fill="#505A83" points="21.3333333 4.66666667 23.3333333 4.66666667 23.3333333 3.33333333 21.3333333 3.33333333"></polygon>
                    <polygon id="Fill-243" fill="#505A83" points="24.6666667 4.66666667 26.6666667 4.66666667 26.6666667 3.33333333 24.6666667 3.33333333"></polygon>
                </g>
                <g id="Group-15" transform="translate(58.000000, 1.000000)">
                    <g id="Group-12">
                        <path d="M11.6521861,8.17124146e-13 C2.52250043,8.17124146e-13 -2.32567099,10.6634805 3.59892901,17.457974 L3.15232901,22.9458701 L7.68338615,20.3535584 C14.6658719,23.1391169 22.2979861,18.0299221 22.2979861,10.5575065 C22.2979861,4.72675325 17.5318433,8.17124146e-13 11.6521861,8.17124146e-13" id="Fill-291-Copy-2" fill="#FAD8AF"></path>
                        <path d="M10.9644655,19.8576623 C5.95915124,19.8576623 1.90140838,15.8334545 1.90140838,10.8695065 C1.90140838,5.90524675 5.95915124,1.88135065 10.9644655,1.88135065 C15.9700941,1.88135065 20.027837,5.90524675 20.027837,10.8695065 C20.027837,15.8334545 15.9700941,19.8576623 10.9644655,19.8576623 Z M10.9644655,0.311688312 C1.81372267,0.311688312 -3.0115059,11.0075844 2.92660838,17.7874286 L2.46492267,23.462961 L7.14746553,20.7254026 C14.1136084,23.3800519 21.6102655,18.2686753 21.6102655,10.8695065 C21.6102655,5.03875325 16.8441227,0.311688312 10.9644655,0.311688312 Z" id="Fill-292-Copy-2" fill="#F6C79F"></path>
                        <path d="M2.99708509,22.4193654 L6.89482865,20.1893868 L7.02493683,20.1802773 C13.9161057,22.9316295 21.144146,17.9889469 21.144146,10.8691948 C21.144146,5.30271586 16.5768704,0.773376623 10.9626317,0.773376623 C2.27130037,0.773376623 -2.45682149,10.8859753 3.3463282,17.5662524 L3.38259569,17.6767763 L2.99708509,22.4193654 Z M2.43112757,17.9233586 C-3.57152314,10.7920742 1.54981132,-0.15 10.9626317,-0.15 C17.088862,-0.15 22.0727174,4.79256868 22.0727174,10.8691948 C22.0727174,18.5624363 14.2832455,23.9018282 7.03260556,21.1759659 L1.92874822,24.09543 L2.43112757,17.9233586 Z" id="Fill-301-Copy-2" stroke="#505A83" stroke-width="0.3" fill="#505A83"></path>
                    </g>
                    <g id="Group-13" transform="translate(6.000000, 6.000000)">
                        <circle id="Oval" fill="#FFFFFF" cx="5" cy="5" r="5"></circle>
                        <g id="Group-14" fill="#505A83">
                            <path d="M6.5625,3.4375 C6.21875,3.4375 5.9375,3.71875 5.9375,4.0625 C5.9375,4.40625 6.21875,4.6875 6.5625,4.6875 C6.90625,4.6875 7.1875,4.40625 7.1875,4.0625 C7.1875,3.7109375 6.9140625,3.4375 6.5625,3.4375 Z M3.4375,4.6875 C3.78125,4.6875 4.0625,4.40625 4.0625,4.0625 C4.0625,3.71875 3.78125,3.4375 3.4375,3.4375 C3.09375,3.4375 2.8125,3.71875 2.8125,4.0625 C2.8125,4.40625 3.09375,4.6875 3.4375,4.6875 Z M5,0 C2.2421875,0 0,2.2421875 0,5 C0,7.7578125 2.2421875,10 5,10 C7.7578125,10 10,7.765625 10,5 C10,2.2421875 7.7578125,0 5,0 Z M5,9.375 C2.5859375,9.375 0.625,7.4140625 0.625,5 C0.625,2.5859375 2.5859375,0.625 5,0.625 C7.4140625,0.625 9.375,2.5859375 9.375,5 C9.375,7.4140625 7.4140625,9.375 5,9.375 Z" id="Shape" stroke="#505A83" stroke-width="0.5" fill-rule="nonzero"></path>
                            <path d="M3,6 C3,7.1045695 3.8954305,8 5,8 C6.1045695,8 7,7.1045695 7,6" id="Path"></path>
                        </g>
                    </g>
                </g>
            </g>
        </g>
    </g>
</svg>